<?xml version="1.0" encoding="utf-8" standalone="no"?>
<!DOCTYPE svg PUBLIC "-//W3C//DTD SVG 1.1//EN"
  "http://www.w3.org/Graphics/SVG/1.1/DTD/svg11.dtd">
<svg xmlns:xlink="http://www.w3.org/1999/xlink" width="328.820312pt" height="337.074375pt" viewBox="0 0 328.820312 337.074375" xmlns="http://www.w3.org/2000/svg" version="1.1">
 <metadata>
  <rdf:RDF xmlns:dc="http://purl.org/dc/elements/1.1/" xmlns:cc="http://creativecommons.org/ns#" xmlns:rdf="http://www.w3.org/1999/02/22-rdf-syntax-ns#">
   <cc:Work>
    <dc:type rdf:resource="http://purl.org/dc/dcmitype/StillImage"/>
    <dc:date>2025-04-29T16:21:50.415562</dc:date>
    <dc:format>image/svg+xml</dc:format>
    <dc:creator>
     <cc:Agent>
      <dc:title>Matplotlib v3.10.0, https://matplotlib.org/</dc:title>
     </cc:Agent>
    </dc:creator>
   </cc:Work>
  </rdf:RDF>
 </metadata>
 <defs>
  <style type="text/css">*{stroke-linejoin: round; stroke-linecap: butt}</style>
 </defs>
 <g id="figure_1">
  <g id="patch_1">
   <path d="M 0 337.074375 
L 328.820312 337.074375 
L 328.820312 0 
L 0 0 
z
" style="fill: #ffffff"/>
  </g>
  <g id="axes_1">
   <g id="patch_2">
    <path d="M 42.620313 299.518125 
L 321.620313 299.518125 
L 321.620313 22.318125 
L 42.620313 22.318125 
z
" style="fill: #ffffff"/>
   </g>
   <g id="matplotlib.axis_1">
    <g id="xtick_1">
     <g id="line2d_1">
      <defs>
       <path id="m506bf4389b" d="M 0 0 
L 0 3.5 
" style="stroke: #000000; stroke-width: 0.8"/>
      </defs>
      <g>
       <use xlink:href="#m506bf4389b" x="57.519812" y="299.518125" style="stroke: #000000; stroke-width: 0.8"/>
      </g>
     </g>
     <g id="text_1">
      <!-- −6 -->
      <g transform="translate(50.148718 314.116563) scale(0.1 -0.1)">
       <defs>
        <path id="DejaVuSans-2212" d="M 678 2272 
L 4684 2272 
L 4684 1741 
L 678 1741 
L 678 2272 
z
" transform="scale(0.015625)"/>
        <path id="DejaVuSans-36" d="M 2113 2584 
Q 1688 2584 1439 2293 
Q 1191 2003 1191 1497 
Q 1191 994 1439 701 
Q 1688 409 2113 409 
Q 2538 409 2786 701 
Q 3034 994 3034 1497 
Q 3034 2003 2786 2293 
Q 2538 2584 2113 2584 
z
M 3366 4563 
L 3366 3988 
Q 3128 4100 2886 4159 
Q 2644 4219 2406 4219 
Q 1781 4219 1451 3797 
Q 1122 3375 1075 2522 
Q 1259 2794 1537 2939 
Q 1816 3084 2150 3084 
Q 2853 3084 3261 2657 
Q 3669 2231 3669 1497 
Q 3669 778 3244 343 
Q 2819 -91 2113 -91 
Q 1303 -91 875 529 
Q 447 1150 447 2328 
Q 447 3434 972 4092 
Q 1497 4750 2381 4750 
Q 2619 4750 2861 4703 
Q 3103 4656 3366 4563 
z
" transform="scale(0.015625)"/>
       </defs>
       <use xlink:href="#DejaVuSans-2212"/>
       <use xlink:href="#DejaVuSans-36" transform="translate(83.789062 0)"/>
      </g>
     </g>
    </g>
    <g id="xtick_2">
     <g id="line2d_2">
      <g>
       <use xlink:href="#m506bf4389b" x="99.053312" y="299.518125" style="stroke: #000000; stroke-width: 0.8"/>
      </g>
     </g>
     <g id="text_2">
      <!-- −4 -->
      <g transform="translate(91.682218 314.116563) scale(0.1 -0.1)">
       <defs>
        <path id="DejaVuSans-34" d="M 2419 4116 
L 825 1625 
L 2419 1625 
L 2419 4116 
z
M 2253 4666 
L 3047 4666 
L 3047 1625 
L 3713 1625 
L 3713 1100 
L 3047 1100 
L 3047 0 
L 2419 0 
L 2419 1100 
L 313 1100 
L 313 1709 
L 2253 4666 
z
" transform="scale(0.015625)"/>
       </defs>
       <use xlink:href="#DejaVuSans-2212"/>
       <use xlink:href="#DejaVuSans-34" transform="translate(83.789062 0)"/>
      </g>
     </g>
    </g>
    <g id="xtick_3">
     <g id="line2d_3">
      <g>
       <use xlink:href="#m506bf4389b" x="140.586812" y="299.518125" style="stroke: #000000; stroke-width: 0.8"/>
      </g>
     </g>
     <g id="text_3">
      <!-- −2 -->
      <g transform="translate(133.215719 314.116563) scale(0.1 -0.1)">
       <defs>
        <path id="DejaVuSans-32" d="M 1228 531 
L 3431 531 
L 3431 0 
L 469 0 
L 469 531 
Q 828 903 1448 1529 
Q 2069 2156 2228 2338 
Q 2531 2678 2651 2914 
Q 2772 3150 2772 3378 
Q 2772 3750 2511 3984 
Q 2250 4219 1831 4219 
Q 1534 4219 1204 4116 
Q 875 4013 500 3803 
L 500 4441 
Q 881 4594 1212 4672 
Q 1544 4750 1819 4750 
Q 2544 4750 2975 4387 
Q 3406 4025 3406 3419 
Q 3406 3131 3298 2873 
Q 3191 2616 2906 2266 
Q 2828 2175 2409 1742 
Q 1991 1309 1228 531 
z
" transform="scale(0.015625)"/>
       </defs>
       <use xlink:href="#DejaVuSans-2212"/>
       <use xlink:href="#DejaVuSans-32" transform="translate(83.789062 0)"/>
      </g>
     </g>
    </g>
    <g id="xtick_4">
     <g id="line2d_4">
      <g>
       <use xlink:href="#m506bf4389b" x="182.120312" y="299.518125" style="stroke: #000000; stroke-width: 0.8"/>
      </g>
     </g>
     <g id="text_4">
      <!-- 0 -->
      <g transform="translate(178.939062 314.116563) scale(0.1 -0.1)">
       <defs>
        <path id="DejaVuSans-30" d="M 2034 4250 
Q 1547 4250 1301 3770 
Q 1056 3291 1056 2328 
Q 1056 1369 1301 889 
Q 1547 409 2034 409 
Q 2525 409 2770 889 
Q 3016 1369 3016 2328 
Q 3016 3291 2770 3770 
Q 2525 4250 2034 4250 
z
M 2034 4750 
Q 2819 4750 3233 4129 
Q 3647 3509 3647 2328 
Q 3647 1150 3233 529 
Q 2819 -91 2034 -91 
Q 1250 -91 836 529 
Q 422 1150 422 2328 
Q 422 3509 836 4129 
Q 1250 4750 2034 4750 
z
" transform="scale(0.015625)"/>
       </defs>
       <use xlink:href="#DejaVuSans-30"/>
      </g>
     </g>
    </g>
    <g id="xtick_5">
     <g id="line2d_5">
      <g>
       <use xlink:href="#m506bf4389b" x="223.653813" y="299.518125" style="stroke: #000000; stroke-width: 0.8"/>
      </g>
     </g>
     <g id="text_5">
      <!-- 2 -->
      <g transform="translate(220.472563 314.116563) scale(0.1 -0.1)">
       <use xlink:href="#DejaVuSans-32"/>
      </g>
     </g>
    </g>
    <g id="xtick_6">
     <g id="line2d_6">
      <g>
       <use xlink:href="#m506bf4389b" x="265.187313" y="299.518125" style="stroke: #000000; stroke-width: 0.8"/>
      </g>
     </g>
     <g id="text_6">
      <!-- 4 -->
      <g transform="translate(262.006063 314.116563) scale(0.1 -0.1)">
       <use xlink:href="#DejaVuSans-34"/>
      </g>
     </g>
    </g>
    <g id="xtick_7">
     <g id="line2d_7">
      <g>
       <use xlink:href="#m506bf4389b" x="306.720813" y="299.518125" style="stroke: #000000; stroke-width: 0.8"/>
      </g>
     </g>
     <g id="text_7">
      <!-- 6 -->
      <g transform="translate(303.539563 314.116563) scale(0.1 -0.1)">
       <use xlink:href="#DejaVuSans-36"/>
      </g>
     </g>
    </g>
    <g id="text_8">
     <!-- x -->
     <g transform="translate(179.160938 327.794688) scale(0.1 -0.1)">
      <defs>
       <path id="DejaVuSans-78" d="M 3513 3500 
L 2247 1797 
L 3578 0 
L 2900 0 
L 1881 1375 
L 863 0 
L 184 0 
L 1544 1831 
L 300 3500 
L 978 3500 
L 1906 2253 
L 2834 3500 
L 3513 3500 
z
" transform="scale(0.015625)"/>
      </defs>
      <use xlink:href="#DejaVuSans-78"/>
     </g>
    </g>
   </g>
   <g id="matplotlib.axis_2">
    <g id="ytick_1">
     <g id="line2d_8">
      <defs>
       <path id="mfaae8a3883" d="M 0 0 
L -3.5 0 
" style="stroke: #000000; stroke-width: 0.8"/>
      </defs>
      <g>
       <use xlink:href="#mfaae8a3883" x="42.620313" y="287.082484" style="stroke: #000000; stroke-width: 0.8"/>
      </g>
     </g>
     <g id="text_9">
      <!-- −6 -->
      <g transform="translate(20.878125 290.881702) scale(0.1 -0.1)">
       <use xlink:href="#DejaVuSans-2212"/>
       <use xlink:href="#DejaVuSans-36" transform="translate(83.789062 0)"/>
      </g>
     </g>
    </g>
    <g id="ytick_2">
     <g id="line2d_9">
      <g>
       <use xlink:href="#mfaae8a3883" x="42.620313" y="245.027697" style="stroke: #000000; stroke-width: 0.8"/>
      </g>
     </g>
     <g id="text_10">
      <!-- −4 -->
      <g transform="translate(20.878125 248.826915) scale(0.1 -0.1)">
       <use xlink:href="#DejaVuSans-2212"/>
       <use xlink:href="#DejaVuSans-34" transform="translate(83.789062 0)"/>
      </g>
     </g>
    </g>
    <g id="ytick_3">
     <g id="line2d_10">
      <g>
       <use xlink:href="#mfaae8a3883" x="42.620313" y="202.97291" style="stroke: #000000; stroke-width: 0.8"/>
      </g>
     </g>
     <g id="text_11">
      <!-- −2 -->
      <g transform="translate(20.878125 206.772129) scale(0.1 -0.1)">
       <use xlink:href="#DejaVuSans-2212"/>
       <use xlink:href="#DejaVuSans-32" transform="translate(83.789062 0)"/>
      </g>
     </g>
    </g>
    <g id="ytick_4">
     <g id="line2d_11">
      <g>
       <use xlink:href="#mfaae8a3883" x="42.620313" y="160.918123" style="stroke: #000000; stroke-width: 0.8"/>
      </g>
     </g>
     <g id="text_12">
      <!-- 0 -->
      <g transform="translate(29.257813 164.717342) scale(0.1 -0.1)">
       <use xlink:href="#DejaVuSans-30"/>
      </g>
     </g>
    </g>
    <g id="ytick_5">
     <g id="line2d_12">
      <g>
       <use xlink:href="#mfaae8a3883" x="42.620313" y="118.863336" style="stroke: #000000; stroke-width: 0.8"/>
      </g>
     </g>
     <g id="text_13">
      <!-- 2 -->
      <g transform="translate(29.257813 122.662555) scale(0.1 -0.1)">
       <use xlink:href="#DejaVuSans-32"/>
      </g>
     </g>
    </g>
    <g id="ytick_6">
     <g id="line2d_13">
      <g>
       <use xlink:href="#mfaae8a3883" x="42.620313" y="76.808549" style="stroke: #000000; stroke-width: 0.8"/>
      </g>
     </g>
     <g id="text_14">
      <!-- 4 -->
      <g transform="translate(29.257813 80.607768) scale(0.1 -0.1)">
       <use xlink:href="#DejaVuSans-34"/>
      </g>
     </g>
    </g>
    <g id="ytick_7">
     <g id="line2d_14">
      <g>
       <use xlink:href="#mfaae8a3883" x="42.620313" y="34.753762" style="stroke: #000000; stroke-width: 0.8"/>
      </g>
     </g>
     <g id="text_15">
      <!-- 6 -->
      <g transform="translate(29.257813 38.552981) scale(0.1 -0.1)">
       <use xlink:href="#DejaVuSans-36"/>
      </g>
     </g>
    </g>
    <g id="text_16">
     <!-- y -->
     <g transform="translate(14.798438 163.8775) rotate(-90) scale(0.1 -0.1)">
      <defs>
       <path id="DejaVuSans-79" d="M 2059 -325 
Q 1816 -950 1584 -1140 
Q 1353 -1331 966 -1331 
L 506 -1331 
L 506 -850 
L 844 -850 
Q 1081 -850 1212 -737 
Q 1344 -625 1503 -206 
L 1606 56 
L 191 3500 
L 800 3500 
L 1894 763 
L 2988 3500 
L 3597 3500 
L 2059 -325 
z
" transform="scale(0.015625)"/>
      </defs>
      <use xlink:href="#DejaVuSans-79"/>
     </g>
    </g>
   </g>
   <g id="line2d_15">
    <path d="M 55.302131 160.918123 
L 55.421006 165.071261 
L 55.883808 171.42931 
L 56.675526 177.795897 
L 58.169142 186.736703 
L 59.035473 191.417431 
L 60.318638 196.098385 
L 61.870767 200.715145 
L 63.57554 205.299594 
L 65.450308 209.871347 
L 67.513836 214.418728 
L 69.779859 218.914707 
L 72.235036 223.341414 
L 74.88248 227.684301 
L 77.715791 231.93331 
L 80.718369 236.087633 
L 83.895921 240.13463 
L 87.244234 244.06242 
L 90.757069 247.861531 
L 94.428363 251.52391 
L 98.251564 255.042608 
L 102.221607 258.409305 
L 106.331097 261.617338 
L 110.57367 264.659517 
L 114.942477 267.528856 
L 119.429727 270.2197 
L 124.027982 272.72626 
L 128.729346 275.043256 
L 133.525824 277.165694 
L 138.409162 279.08898 
L 143.370867 280.80904 
L 148.40237 282.322036 
L 153.49487 283.624673 
L 158.639476 284.714009 
L 163.827177 285.587483 
L 169.048836 286.243013 
L 174.295248 286.678916 
L 179.557136 286.893811 
L 184.825156 286.886913 
L 190.089987 286.657879 
L 195.342219 286.206544 
L 200.572497 285.533277 
L 205.771466 284.638925 
L 210.929812 283.524714 
L 216.038278 282.192299 
L 221.087678 280.643728 
L 226.068922 278.881448 
L 230.973018 276.908314 
L 235.791104 274.72757 
L 240.514466 272.342867 
L 245.13452 269.75821 
L 249.642892 266.978018 
L 254.031378 264.007054 
L 258.29198 260.85045 
L 262.41692 257.513679 
L 266.39866 254.002563 
L 270.229872 250.32321 
L 273.903593 246.482164 
L 277.412943 242.486247 
L 280.751702 238.342269 
L 283.913484 234.05781 
L 286.892505 229.640445 
L 289.683232 225.098027 
L 292.280488 220.438679 
L 294.679422 215.670738 
L 296.875539 210.802752 
L 298.864723 205.843471 
L 300.643207 200.801818 
L 302.207621 195.686885 
L 303.554973 190.507904 
L 304.682651 185.274242 
L 305.588453 179.995374 
L 306.270589 174.680877 
L 306.72766 169.340397 
L 306.958775 163.983647 
L 306.963102 158.620376 
L 306.740802 153.260383 
L 306.291882 147.913436 
L 305.617102 142.589311 
L 304.717512 137.297758 
L 303.59461 132.048473 
L 302.250301 126.851092 
L 300.68691 121.715167 
L 298.90713 116.65015 
L 296.914072 111.665377 
L 294.711236 106.770049 
L 292.302526 101.973205 
L 289.692205 97.283738 
L 286.884929 92.710334 
L 283.885711 88.261488 
L 280.699939 83.945471 
L 277.333322 79.770335 
L 273.791923 75.743876 
L 270.08213 71.873631 
L 266.210714 68.166813 
L 262.18464 64.630426 
L 258.011225 61.271131 
L 253.698065 58.095269 
L 249.253032 55.10885 
L 244.684237 52.317551 
L 240.000043 49.726697 
L 235.209019 47.341236 
L 230.319982 45.165796 
L 225.341917 43.204501 
L 220.283941 41.461264 
L 215.15545 39.93945 
L 209.965878 38.642079 
L 204.724812 37.571752 
L 199.442028 36.730696 
L 194.127247 36.120607 
L 188.790416 35.742855 
L 183.441421 35.598379 
L 178.09027 35.687541 
L 172.746964 36.010395 
L 167.421484 36.566634 
L 162.123817 37.355434 
L 156.863918 38.375471 
L 151.651678 39.625049 
L 146.496921 41.102013 
L 141.409383 42.803798 
L 136.398684 44.72741 
L 131.474329 46.869441 
L 126.64566 49.226041 
L 121.921884 51.792992 
L 117.311999 54.565619 
L 112.824815 57.538879 
L 108.468943 60.707351 
L 104.252739 64.065211 
L 100.184317 67.606269 
L 96.271569 71.32402 
L 92.522019 75.211526 
L 88.942933 79.261561 
L 85.541347 83.466619 
L 82.323837 87.818809 
L 79.29687 92.309993 
L 76.466131 96.931737 
L 73.837401 101.675266 
L 71.416039 106.531735 
L 69.206513 111.492166 
L 67.213602 116.546244 
L 65.441221 121.68567 
L 63.892816 126.899781 
L 62.571993 132.178674 
L 61.481152 137.512739 
L 60.622759 142.891256 
L 59.998497 148.304084 
L 59.610794 153.740848 
L 59.458795 159.190891 
L 59.544676 164.643812 
L 59.867779 170.089211 
L 60.427812 175.516203 
L 61.224056 180.914349 
L 62.255056 186.273132 
L 63.519193 191.58207 
L 65.014051 196.830768 
L 66.73708 202.008936 
L 68.685129 207.106351 
L 70.854551 212.113003 
L 73.2414 217.018976 
L 75.841185 221.814557 
L 78.649021 226.490223 
L 81.659612 231.036666 
L 84.867227 235.444824 
L 88.265771 239.705864 
L 91.848719 243.811253 
L 95.609182 247.752747 
L 99.53997 251.522325 
L 103.633429 255.112421 
L 107.881621 258.515748 
L 112.276282 261.725367 
L 116.808846 264.734714 
L 121.47045 267.537612 
L 126.251947 270.128292 
L 131.143948 272.501374 
L 136.136806 274.651927 
L 141.220661 276.575452 
L 146.385466 278.26788 
L 151.620965 279.725576 
L 156.916715 280.945451 
L 162.262201 281.92496 
L 167.646761 282.661615 
L 173.059629 283.153428 
L 178.490152 283.400007 
L 183.927176 283.400828 
L 189.359313 283.154778 
L 194.776001 282.661542 
L 200.166812 281.923681 
L 205.521231 280.941776 
L 210.827429 279.716082 
L 216.073233 278.250637 
L 221.249429 276.549058 
L 226.347579 274.612366 
L 231.355072 272.444494 
L 236.260642 270.050999 
L 241.055682 267.436048 
L 245.730433 264.60442 
L 250.274871 261.56196 
L 254.679702 258.314626 
L 258.935855 254.868993 
L 263.034506 251.231835 
L 266.967135 247.410426 
L 270.725597 243.412571 
L 274.302044 239.246226 
L 277.68907 234.919799 
L 280.879548 230.442094 
L 283.866754 225.822175 
L 286.644446 221.069414 
L 289.206772 216.193515 
L 291.548285 211.204428 
L 293.664013 206.112341 
L 295.54946 200.927684 
L 297.20058 195.6611 
L 298.613791 190.3234 
L 299.786024 184.925579 
L 300.714706 179.478753 
L 301.39776 173.994168 
L 301.833633 168.483154 
L 302.021226 162.957137 
L 301.960101 157.427552 
L 301.650208 151.905874 
L 301.091936 146.40359 
L 300.286369 140.932149 
L 299.235038 135.50295 
L 297.939987 130.127322 
L 296.403798 124.81649 
L 294.629536 119.581568 
L 292.620765 114.433517 
L 290.381548 109.383133 
L 287.916438 104.441014 
L 285.230485 99.617557 
L 282.329173 94.922913 
L 279.218467 90.366966 
L 275.904781 85.959344 
L 272.394947 81.709369 
L 268.696231 77.626012 
L 264.816351 73.717876 
L 260.763228 69.993421 
L 256.545408 66.46042 
L 252.171655 63.126427 
L 247.651087 59.998567 
L 242.99315 57.083525 
L 238.207582 54.387541 
L 233.30442 51.916401 
L 228.293935 49.675453 
L 223.186653 47.669499 
L 217.993316 45.902914 
L 212.724856 44.379531 
L 207.392364 43.102716 
L 202.007107 42.075253 
L 196.580444 41.299495 
L 191.123857 40.777117 
L 185.64889 40.509461 
L 180.167154 40.496913 
L 174.690262 40.740175 
L 169.229856 41.238418 
L 163.797545 41.990847 
L 158.404891 42.996005 
L 153.063367 44.251849 
L 147.784404 45.755815 
L 142.579299 47.504838 
L 137.459078 49.495343 
L 132.434721 51.723285 
L 127.517182 54.183751 
L 122.716832 56.871713 
L 118.04394 59.781982 
L 113.508782 62.907886 
L 109.120974 66.242873 
L 104.890054 69.780447 
L 100.825176 73.512667 
L 96.935072 77.431656 
L 93.228219 81.529325 
L 89.712758 85.796834 
L 86.396242 90.225111 
L 83.285992 94.804821 
L 80.388799 99.526114 
L 77.71102 104.378924 
L 75.258536 109.352903 
L 73.036839 114.437323 
L 71.050867 119.621239 
L 69.304904 124.893813 
L 67.803059 130.243389 
L 66.548654 135.658583 
L 65.544595 141.127624 
L 64.793211 146.638773 
L 64.296332 152.180065 
L 64.055059 157.73951 
L 64.070452 163.305046 
L 64.342055 168.86455 
L 64.870006 174.405956 
L 65.653152 179.917147 
L 66.689981 185.386102 
L 67.978411 190.800856 
L 69.515789 196.149539 
L 71.29897 201.420396 
L 73.324232 206.601849 
L 75.587335 211.682476 
L 78.08351 216.651047 
L 80.807443 221.496592 
L 83.753361 226.208344 
L 86.914949 230.775846 
L 90.285439 235.188924 
L 93.857579 239.437718 
L 97.623675 243.512703 
L 101.575559 247.404766 
L 105.704658 251.105145 
L 110.002007 254.60546 
L 114.458233 257.897793 
L 119.063605 260.974647 
L 123.808026 263.829004 
L 128.681093 266.454315 
L 133.672083 268.844531 
L 138.769997 270.994101 
L 143.963565 272.898003 
L 149.241274 274.55177 
L 154.591453 275.951458 
L 160.00218 277.093625 
L 165.461385 277.975556 
L 170.956873 278.59501 
L 176.476374 278.950252 
L 182.007558 279.040259 
L 187.537809 278.864648 
L 193.054845 278.423412 
L 198.546207 277.717257 
L 203.999285 276.747603 
L 209.401943 275.5164 
L 214.741768 274.025994 
L 220.00655 272.279606 
L 225.184349 270.280998 
L 230.263326 268.034302 
L 235.231777 265.544369 
L 240.078193 262.816741 
L 244.791498 259.857292 
L 249.360777 256.672508 
L 253.775364 253.269479 
L 258.025036 249.655743 
L 262.099844 245.839361 
L 265.99026 241.828865 
L 269.6871 237.633207 
L 273.181696 233.261931 
L 276.465753 228.724879 
L 279.531472 224.032325 
L 282.371522 219.194958 
L 284.979074 214.223798 
L 287.347853 209.130216 
L 289.472099 203.925893 
L 291.346592 198.622789 
L 292.966718 193.233127 
L 294.328424 187.769365 
L 295.428227 182.244159 
L 296.263289 176.670337 
L 296.831356 171.06088 
L 297.130852 165.42887 
L 297.160937 159.787503 
L 296.920803 154.149977 
L 296.411092 148.529544 
L 295.632582 142.939447 
L 294.586797 137.392883 
L 293.275955 131.903009 
L 291.702916 126.482888 
L 289.87116 121.145417 
L 287.784771 115.903287 
L 285.448406 110.768939 
L 282.867276 105.754548 
L 280.047249 100.872078 
L 276.994814 96.133433 
L 273.717039 91.550331 
L 270.221543 87.134006 
L 266.51641 82.895336 
L 262.61029 78.844747 
L 258.512139 74.991901 
L 254.231447 71.345536 
L 249.778123 67.914393 
L 245.162931 64.706824 
L 240.397256 61.730777 
L 235.492572 58.994075 
L 230.460304 56.503937 
L 225.31247 54.266576 
L 220.061593 52.287754 
L 214.720147 50.572735 
L 209.300482 49.125484 
L 203.816184 47.949538 
L 198.280357 47.048148 
L 192.706295 46.423781 
L 187.107677 46.078056 
L 181.498036 46.012051 
L 175.89102 46.226428 
L 170.30044 46.720729 
L 164.739949 47.493962 
L 159.2231 48.54457 
L 153.76351 49.870194 
L 148.374617 51.467785 
L 143.069662 53.333688 
L 137.861768 55.463551 
L 132.763828 57.852318 
L 127.788459 60.494335 
L 122.948005 63.3833 
L 118.254516 66.512264 
L 113.719686 69.873688 
L 109.354831 73.45946 
L 105.170888 77.260881 
L 101.178292 81.268649 
L 97.387186 85.473086 
L 93.807047 89.863838 
L 90.446926 94.430145 
L 87.315332 99.160802 
L 84.420233 104.044163 
L 81.769004 109.068167 
L 79.368426 114.220404 
L 77.22465 119.488111 
L 75.343226 124.85822 
L 73.729033 130.317382 
L 72.386282 135.852013 
L 71.318536 141.448303 
L 70.52866 147.092259 
L 70.018824 152.769789 
L 69.79038 158.466668 
L 69.844204 164.168567 
L 70.180475 169.861163 
L 70.798352 175.530143 
L 71.696502 181.161199 
L 72.872888 186.74012 
L 74.324683 192.252778 
L 76.048405 197.685213 
L 78.039897 203.023655 
L 80.294295 208.254529 
L 82.806058 213.364516 
L 85.569009 218.340575 
L 88.576288 223.170012 
L 91.820433 227.840465 
L 95.29336 232.339963 
L 98.986394 236.656945 
L 102.890277 240.780286 
L 106.995199 244.699395 
L 111.290826 248.404117 
L 115.766345 251.884837 
L 120.410429 255.132524 
L 125.211333 258.138703 
L 130.156877 260.895517 
L 135.234488 263.395741 
L 140.431246 265.63277 
L 145.7339 267.600682 
L 151.128904 269.294236 
L 156.602454 270.708868 
L 162.140524 271.840732 
L 167.728894 272.686706 
L 173.353199 273.244409 
L 178.99894 273.512231 
L 184.651566 273.48917 
L 190.296441 273.175065 
L 195.918963 272.570581 
L 201.504548 271.67698 
L 207.038677 270.496384 
L 212.506935 269.031635 
L 217.89506 267.286308 
L 223.188975 265.26471 
L 228.3748 262.971875 
L 233.438936 260.413556 
L 238.368061 257.596189 
L 243.149172 254.526933 
L 247.769644 251.213592 
L 252.217236 247.66462 
L 256.480122 243.88911 
L 260.546944 239.89675 
L 264.406893 235.697908 
L 268.049557 231.303353 
L 271.465172 226.724506 
L 274.644506 221.973271 
L 277.578948 217.062018 
L 280.260509 212.003573 
L 282.681829 206.811186 
L 284.836243 201.498472 
L 286.717779 196.079407 
L 288.321151 190.568281 
L 289.641808 184.97965 
L 290.675933 179.328323 
L 291.420489 173.629299 
L 291.873181 167.897745 
L 292.032524 162.148943 
L 291.897668 156.398404 
L 291.46873 150.661155 
L 290.746502 144.952959 
L 289.732615 139.2891 
L 288.429472 133.684868 
L 286.840267 128.155435 
L 284.968954 122.715807 
L 282.820257 117.38079 
L 280.399667 112.164951 
L 277.713432 107.082559 
L 274.768527 102.147574 
L 271.572646 97.373589 
L 268.134187 92.773793 
L 264.462232 88.360935 
L 260.566531 84.147286 
L 256.457416 80.144649 
L 252.14592 76.364214 
L 247.643605 72.816633 
L 242.962602 69.511942 
L 238.115556 66.459547 
L 233.115615 63.668175 
L 227.976377 61.145867 
L 222.711874 58.899931 
L 217.336512 56.936952 
L 211.865053 55.262736 
L 206.312564 53.882294 
L 200.694382 52.799886 
L 195.026071 52.018904 
L 189.323382 51.541919 
L 183.602203 51.370735 
L 177.878518 51.506045 
L 172.168362 51.948022 
L 166.487797 52.695713 
L 160.852867 53.747517 
L 155.279575 55.100969 
L 149.78376 56.752843 
L 144.380978 58.699088 
L 139.08652 60.9346 
L 133.915399 63.453094 
L 128.882328 66.247321 
L 124.001774 69.309268 
L 119.288007 72.630438 
L 114.754905 76.201996 
L 110.415905 80.014621 
L 106.283955 84.058114 
L 102.371194 88.321207 
L 98.689254 92.791898 
L 95.24888 97.457289 
L 92.060038 102.304087 
L 89.131989 107.318604 
L 86.473361 112.486597 
L 84.092165 117.793352 
L 81.99576 123.223629 
L 80.190775 128.761748 
L 78.682967 134.391723 
L 77.477198 140.097276 
L 76.577349 145.861853 
L 75.986426 151.668697 
L 75.706496 157.500874 
L 75.73876 163.341302 
L 76.083495 169.172877 
L 76.740208 174.978403 
L 77.707316 180.740746 
L 78.98232 186.442844 
L 80.56181 192.067772 
L 82.441495 197.598784 
L 84.616189 203.019363 
L 87.079809 208.313272 
L 89.825376 213.464607 
L 92.845047 218.457829 
L 96.130143 223.277851 
L 99.671184 227.910085 
L 103.457887 232.340438 
L 107.479174 236.555386 
L 111.723285 240.542079 
L 116.177723 244.288265 
L 120.829326 247.782357 
L 125.664266 251.013519 
L 130.668168 253.971716 
L 135.82614 256.647684 
L 141.122761 259.033011 
L 146.542083 261.120192 
L 152.067797 262.902518 
L 157.683253 264.374209 
L 163.371434 265.530484 
L 169.115073 266.367456 
L 174.896733 266.882163 
L 180.698751 267.07283 
L 186.503375 266.938376 
L 192.292851 266.478953 
L 198.049396 265.695561 
L 203.755238 264.590291 
L 209.392792 263.16622 
L 214.944629 261.427393 
L 220.393495 259.378857 
L 225.722451 257.026619 
L 230.914895 254.37763 
L 235.954599 251.439806 
L 240.82577 248.221965 
L 245.513091 244.733803 
L 250.001703 240.986 
L 254.277728 236.989727 
L 258.327321 232.757382 
L 262.137681 228.30191 
L 265.696666 223.637019 
L 268.992888 218.777101 
L 272.015744 213.737194 
L 274.755468 208.532941 
L 277.203156 203.180533 
L 279.350814 197.696668 
L 281.191379 192.098502 
L 282.718729 186.403586 
L 283.927727 180.629819 
L 284.814195 174.795387 
L 285.375045 168.91872 
L 285.608098 163.01841 
L 285.512376 157.113185 
L 285.087904 151.221831 
L 284.335516 145.363116 
L 283.25733 139.555767 
L 281.856497 133.818383 
L 280.137152 128.169386 
L 278.104472 122.626962 
L 275.764638 117.208995 
L 273.124851 111.933009 
L 270.193269 106.816132 
L 266.97903 101.875 
L 263.492189 97.125748 
L 259.743716 92.583913 
L 255.745461 88.264398 
L 251.510068 84.181474 
L 247.051047 80.348608 
L 242.382619 76.778531 
L 237.519724 73.483151 
L 232.477972 70.473516 
L 227.273604 67.759754 
L 221.923427 65.351093 
L 216.44479 63.255756 
L 210.855493 61.480979 
L 205.173752 60.03297 
L 199.418129 58.916892 
L 193.607477 58.136825 
L 187.760886 57.69574 
L 181.897622 57.595567 
L 176.037039 57.836906 
L 170.198579 58.419467 
L 164.401627 59.341851 
L 158.665501 60.601379 
L 153.009363 62.194307 
L 147.452166 64.115725 
L 142.012568 66.359569 
L 136.708875 68.918648 
L 131.559037 71.784731 
L 126.580625 74.948649 
L 121.79078 78.400343 
L 117.206094 82.128848 
L 112.842406 86.122177 
L 108.714739 90.367258 
L 104.837069 94.849841 
L 101.222694 99.554872 
L 97.884036 104.466493 
L 94.832822 109.568313 
L 92.080035 114.843349 
L 89.635761 120.273908 
L 87.509051 125.84161 
L 85.70778 131.527442 
L 84.238628 137.311969 
L 83.107119 143.175456 
L 82.31764 149.097883 
L 81.873403 155.058933 
L 81.776432 161.03802 
L 82.027668 167.014367 
L 82.626857 172.96718 
L 83.572409 178.875664 
L 84.861595 184.719129 
L 86.490452 190.477019 
L 88.453833 196.129004 
L 90.745407 201.65505 
L 93.357669 207.035479 
L 96.281931 212.251073 
L 99.508395 217.283099 
L 103.026139 222.113412 
L 106.823176 226.724515 
L 110.886492 231.099621 
L 115.202027 235.222752 
L 119.754808 239.078745 
L 124.528964 242.653317 
L 129.507733 245.933154 
L 134.673566 248.905941 
L 140.008176 251.56041 
L 145.492598 253.886393 
L 151.107242 255.874891 
L 156.831963 257.518098 
L 162.646146 258.809421 
L 168.528763 259.743512 
L 174.458453 260.316304 
L 180.413598 260.525205 
L 186.372403 260.368542 
L 192.312958 259.846384 
L 198.213341 258.95995 
L 204.051563 257.711879 
L 209.806276 256.10609 
L 215.455641 254.147954 
L 220.97855 251.844089 
L 226.354213 249.202457 
L 231.562272 246.232293 
L 236.582947 242.944136 
L 241.397056 239.349741 
L 245.986135 235.46207 
L 250.332502 231.295267 
L 254.419236 226.864492 
L 258.230464 222.186098 
L 261.751219 217.277384 
L 264.967588 212.156594 
L 267.866765 206.842856 
L 270.437115 201.356123 
L 272.668203 195.71709 
L 274.55087 189.947112 
L 276.077249 184.068143 
L 277.240821 178.102647 
L 278.036437 172.073505 
L 278.460402 166.003941 
L 278.510537 159.917443 
L 278.185636 153.837621 
L 277.486596 147.788195 
L 276.415386 141.792838 
L 274.975583 135.87511 
L 273.172203 130.058355 
L 271.011679 124.365621 
L 268.501905 118.819545 
L 265.652189 113.442277 
L 262.473221 108.255386 
L 258.977044 103.279766 
L 255.177013 98.535555 
L 251.087731 94.042044 
L 246.725025 89.817613 
L 242.105913 85.879578 
L 237.248449 82.244237 
L 232.171754 78.926698 
L 226.895894 75.940861 
L 221.441827 73.299327 
L 215.831304 71.013366 
L 210.086795 69.092832 
L 204.231409 67.546129 
L 198.288788 66.380174 
L 192.283025 65.600374 
L 186.238565 65.210476 
L 180.180112 65.212943 
L 174.132511 65.608002 
L 168.120652 66.395107 
L 162.169363 67.571583 
L 156.303316 69.133186 
L 150.546922 71.074073 
L 144.924247 73.386787 
L 139.458904 76.062287 
L 134.173938 79.089982 
L 129.091747 82.457818 
L 124.233952 86.152292 
L 119.6213 90.158492 
L 115.273552 94.460119 
L 111.209555 99.039689 
L 107.446825 103.878209 
L 104.00182 108.955683 
L 100.889683 114.250988 
L 98.124199 119.741977 
L 95.717702 125.40557 
L 93.681066 131.217899 
L 92.023598 137.154332 
L 90.75306 143.189616 
L 89.875582 149.297984 
L 89.395642 155.453264 
L 89.315979 161.628969 
L 89.637861 167.798478 
L 90.360423 173.93502 
L 91.481275 180.011895 
L 92.996202 186.002536 
L 94.899252 191.880637 
L 97.182818 197.620263 
L 99.837582 203.195979 
L 102.852576 208.582959 
L 106.215176 213.757129 
L 109.911191 218.69524 
L 113.924863 223.374999 
L 118.238949 227.775175 
L 122.834846 231.875602 
L 127.692581 235.657447 
L 132.790947 239.103161 
L 138.107566 242.196649 
L 143.618978 244.923316 
L 149.300734 247.270173 
L 155.127509 249.225866 
L 161.073211 250.780762 
L 167.111085 251.926978 
L 173.213837 252.658454 
L 179.353752 252.971044 
L 185.502811 252.862399 
L 191.632822 252.332086 
L 197.715537 251.381718 
L 203.722799 250.014755 
L 209.626654 248.236657 
L 215.399365 246.054806 
L 221.014162 243.478325 
L 226.444161 240.518478 
L 231.663634 237.188226 
L 236.647634 233.502357 
L 241.372173 229.477396 
L 245.814371 225.131581 
L 249.952549 220.484682 
L 253.766368 215.558108 
L 257.236899 210.374625 
L 260.346765 204.958385 
L 263.080206 199.334762 
L 265.42318 193.53027 
L 267.363456 187.572438 
L 268.890672 181.489686 
L 269.996393 175.311198 
L 270.674179 169.066783 
L 270.919756 162.786745 
L 270.730686 156.501721 
L 270.106846 150.242568 
L 269.050205 144.040182 
L 267.564867 137.925361 
L 265.657105 131.928651 
L 263.335287 126.08019 
L 260.609912 120.409553 
L 257.493576 114.945599 
L 254.000873 109.716341 
L 252.118499 107.198201 
L 250.148412 104.748771 
L 248.092986 102.371246 
L 245.954712 100.068733 
L 243.736191 97.84425 
L 241.440107 95.700785 
L 239.069309 93.64113 
L 236.626721 91.668028 
L 234.115362 89.784124 
L 231.538354 87.991948 
L 228.898913 86.293921 
L 226.200348 84.692346 
L 223.446054 83.189412 
L 220.639507 81.787195 
L 217.784261 80.487639 
L 214.88395 79.292569 
L 211.942274 78.203684 
L 208.962996 77.222555 
L 205.949944 76.350612 
L 202.906995 75.589165 
L 199.838078 74.939375 
L 196.747164 74.402265 
L 193.638271 73.978732 
L 190.515443 73.669484 
L 187.382763 73.475069 
L 184.244323 73.395975 
L 181.104264 73.432456 
L 177.966727 73.584455 
L 174.835853 73.852111 
L 171.715806 74.235205 
L 168.610744 74.733354 
L 165.524821 75.346037 
L 162.462184 76.072589 
L 159.426959 76.912181 
L 156.423256 77.863851 
L 153.455153 78.92649 
L 150.526698 80.09883 
L 147.6419 81.379464 
L 144.804725 82.766828 
L 142.019083 84.259208 
L 139.288828 85.854749 
L 136.617757 87.551448 
L 134.009596 89.347159 
L 131.467991 91.239585 
L 128.996517 93.226292 
L 126.598655 95.304708 
L 124.277796 97.472119 
L 122.037209 99.725672 
L 119.880163 102.062449 
L 117.809693 104.479318 
L 115.828781 106.973064 
L 113.940293 109.540357 
L 112.146977 112.177753 
L 110.451457 114.881699 
L 108.856231 117.648536 
L 107.36366 120.4745 
L 105.975981 123.355734 
L 104.695295 126.288298 
L 103.523549 129.268154 
L 102.462557 132.29119 
L 101.513981 135.353218 
L 100.679329 138.449982 
L 99.959957 141.577161 
L 99.357067 144.730379 
L 98.871695 147.905205 
L 98.504703 151.097161 
L 98.256811 154.301737 
L 98.128509 157.51438 
L 98.120302 160.730513 
L 98.232102 163.945542 
L 98.464163 167.154851 
L 98.816292 170.353829 
L 99.288159 173.537853 
L 99.879267 176.702309 
L 100.588941 179.842593 
L 101.416323 182.954124 
L 102.360393 186.032344 
L 103.41997 189.072731 
L 104.593684 192.070797 
L 105.88 195.022104 
L 107.277207 197.922268 
L 108.783436 200.766959 
L 110.396641 203.551917 
L 112.114613 206.272956 
L 113.934986 208.925965 
L 115.855228 211.506924 
L 117.872652 214.0119 
L 119.98442 216.437062 
L 122.187551 218.778668 
L 124.478883 221.033131 
L 126.855174 223.196935 
L 129.312968 225.266711 
L 131.848733 227.239201 
L 134.458779 229.111298 
L 137.139301 230.880029 
L 139.886369 232.542567 
L 142.695943 234.096232 
L 145.56387 235.5385 
L 148.4859 236.867012 
L 151.457675 238.079569 
L 154.474752 239.174139 
L 157.532601 240.148868 
L 160.626614 241.002079 
L 163.752111 241.732266 
L 166.904344 242.338116 
L 170.07851 242.818486 
L 173.269753 243.172441 
L 176.473171 243.399209 
L 179.683834 243.498318 
L 182.896768 243.469273 
L 186.106976 243.31211 
L 189.309469 243.026717 
L 192.499235 242.613318 
L 195.671263 242.0724 
L 198.820553 241.40459 
L 201.942124 240.610739 
L 205.031016 239.691893 
L 208.082307 238.649293 
L 211.091113 237.484379 
L 214.052598 236.198797 
L 216.961984 234.794386 
L 219.814557 233.273183 
L 222.605679 231.63742 
L 225.330786 229.889519 
L 227.985408 228.032091 
L 230.565166 226.067933 
L 233.065789 224.000023 
L 235.483108 221.831514 
L 237.813085 219.565734 
L 240.0518 217.206195 
L 242.195485 214.756592 
L 244.240477 212.220716 
L 246.183274 209.602557 
L 248.02053 206.906252 
L 249.749061 204.136079 
L 251.365843 201.296454 
L 252.868027 198.391925 
L 254.252941 195.427165 
L 255.518093 192.406963 
L 256.661181 189.33622 
L 257.680098 186.219942 
L 258.572923 183.06323 
L 259.337962 179.871271 
L 259.9737 176.649333 
L 260.478838 173.402756 
L 260.852297 170.136944 
L 261.093231 166.857351 
L 261.201019 163.569635 
L 261.175207 160.278937 
L 261.015544 156.991134 
L 260.722126 153.71177 
L 260.295199 150.446426 
L 259.735215 147.200693 
L 259.042921 143.980155 
L 258.219257 140.790377 
L 257.265391 137.636895 
L 256.182723 134.525206 
L 254.97288 131.460755 
L 253.637718 128.448936 
L 252.17931 125.49507 
L 250.599978 122.604399 
L 248.902233 119.782085 
L 247.088814 117.033192 
L 245.162684 114.362674 
L 243.127001 111.775374 
L 240.985134 109.276017 
L 238.740662 106.869181 
L 236.397337 104.559321 
L 233.959107 102.350757 
L 231.430144 100.247578 
L 228.814764 98.253757 
L 226.117465 96.373078 
L 223.342912 94.609134 
L 220.495938 92.965321 
L 217.581518 91.444838 
L 214.604793 90.05066 
L 211.571026 88.785558 
L 208.485616 87.652083 
L 205.354082 86.652561 
L 202.182061 85.789083 
L 198.975281 85.063505 
L 195.739571 84.477467 
L 192.480834 84.032347 
L 189.205047 83.729269 
L 185.918247 83.569124 
L 182.626527 83.552527 
L 179.335979 83.679794 
L 176.052776 83.951014 
L 172.783067 84.36606 
L 169.53302 84.92448 
L 166.308786 85.625512 
L 163.116502 86.468133 
L 159.962271 87.451063 
L 156.852153 88.572742 
L 153.792152 89.831333 
L 150.788212 91.224741 
L 147.846196 92.750582 
L 144.971893 94.406232 
L 142.170979 96.188788 
L 139.449034 98.095098 
L 136.811512 100.12175 
L 134.263741 102.265086 
L 131.810908 104.521206 
L 129.458031 106.88593 
L 127.209988 109.354933 
L 125.071448 111.923564 
L 123.04691 114.586992 
L 121.140673 117.340179 
L 119.356818 120.177874 
L 117.699203 123.094627 
L 116.171456 126.0848 
L 114.776963 129.142581 
L 113.518859 132.261987 
L 112.400023 135.436876 
L 111.423067 138.660957 
L 110.590328 141.927808 
L 109.903869 145.230878 
L 109.365458 148.563507 
L 108.976595 151.918938 
L 108.738455 155.290316 
L 108.651955 158.670733 
L 108.717622 162.053199 
L 108.935609 165.430682 
L 109.30605 168.796129 
L 109.828544 172.142465 
L 110.502375 175.462605 
L 111.326519 178.749479 
L 112.29964 181.996039 
L 113.420085 185.195285 
L 114.68587 188.34027 
L 116.094692 191.424114 
L 117.643918 194.440034 
L 119.330607 197.381336 
L 121.151498 200.241455 
L 123.103022 203.013952 
L 125.1813 205.692539 
L 127.382152 208.271088 
L 129.701113 210.743644 
L 132.133408 213.104461 
L 134.67395 215.348029 
L 137.317469 217.468984 
L 140.058374 219.462243 
L 142.89082 221.322977 
L 145.80872 223.046611 
L 148.805756 224.628853 
L 151.87539 226.065693 
L 155.01087 227.353428 
L 158.205246 228.488667 
L 161.451387 229.468345 
L 164.741992 230.28973 
L 168.069606 230.950432 
L 171.426634 231.44841 
L 174.805357 231.781994 
L 178.197951 231.949911 
L 181.596509 231.951211 
L 184.993028 231.785356 
L 188.379477 231.452199 
L 191.747777 230.951981 
L 195.089831 230.285354 
L 198.397544 229.453378 
L 201.662845 228.457509 
L 204.8777 227.299602 
L 208.034136 225.981919 
L 211.124263 224.507142 
L 214.140286 222.878342 
L 217.074533 221.099 
L 219.919479 219.173 
L 222.667746 217.104604 
L 225.312149 214.898482 
L 227.845711 212.559678 
L 230.261609 210.093553 
L 232.553429 207.506011 
L 234.714828 204.803099 
L 236.739834 201.991309 
L 238.622772 199.077466 
L 240.358268 196.068696 
L 241.941295 192.972441 
L 243.367168 189.796429 
L 244.631582 186.548664 
L 245.730611 183.237405 
L 246.660735 179.871153 
L 247.418845 176.458626 
L 248.002258 173.008741 
L 248.408748 169.530598 
L 248.636493 166.033449 
L 248.684346 162.52669 
L 248.551232 159.019812 
L 248.236936 155.522564 
L 247.741552 152.044183 
L 247.065745 148.59467 
L 246.210674 145.183688 
L 245.177993 141.820903 
L 243.969866 138.515948 
L 242.588984 135.278387 
L 241.038549 132.117687 
L 239.322265 129.043194 
L 237.444368 126.06409 
L 235.409585 123.18938 
L 233.223148 120.427854 
L 230.890792 117.788053 
L 228.418675 115.278307 
L 225.813585 112.906493 
L 223.082609 110.680331 
L 220.233341 108.607116 
L 217.273817 106.693759 
L 214.212486 104.946768 
L 211.058187 103.37222 
L 207.820157 101.97571 
L 204.507963 100.762376 
L 201.131522 99.736829 
L 197.701054 98.903149 
L 194.227061 98.264868 
L 190.720298 97.824948 
L 187.191749 97.585712 
L 183.652582 97.549027 
L 180.114148 97.715759 
L 176.587902 98.086562 
L 173.085409 98.661237 
L 169.618286 99.438923 
L 166.198176 100.418064 
L 162.836704 101.596446 
L 159.545436 102.97116 
L 156.335852 104.538602 
L 153.219289 106.294458 
L 150.206913 108.233732 
L 147.309674 110.350734 
L 144.538265 112.639085 
L 141.903066 115.091709 
L 139.414116 117.70088 
L 137.081131 120.458268 
L 134.913291 123.354791 
L 132.919377 126.380819 
L 131.107642 129.526106 
L 129.485802 132.779843 
L 128.060962 136.130653 
L 126.839614 139.566657 
L 125.827579 143.075481 
L 125.029969 146.644298 
L 124.451158 150.259865 
L 124.094756 153.908572 
L 123.963535 157.576471 
L 124.059454 161.24933 
L 124.383709 164.912689 
L 124.936438 168.551887 
L 125.71694 172.152135 
L 126.723594 175.69857 
L 127.953832 179.176305 
L 129.404126 182.570494 
L 131.069967 185.866395 
L 132.945885 189.049419 
L 135.025414 192.105219 
L 137.301108 195.01974 
L 139.76456 197.779285 
L 142.406385 200.370582 
L 145.216211 202.780926 
L 148.182801 204.99808 
L 151.293954 207.010515 
L 154.536602 208.807393 
L 157.896816 210.378668 
L 161.359854 211.715141 
L 164.910198 212.808543 
L 168.531604 213.651579 
L 172.207159 214.238024 
L 175.919334 214.562753 
L 179.650052 214.621751 
L 183.38076 214.412528 
L 187.09249 213.933578 
L 190.76596 213.184795 
L 194.381642 212.167564 
L 197.919869 210.88466 
L 201.360923 209.340346 
L 204.685134 207.540387 
L 207.873 205.492092 
L 210.905283 203.204325 
L 213.763146 200.68753 
L 216.428209 197.953673 
L 218.882851 195.016446 
L 221.110076 191.890931 
L 223.093851 188.593842 
L 224.819157 185.14339 
L 226.272149 181.559258 
L 227.440282 177.862549 
L 228.312466 174.075723 
L 228.879182 170.222515 
L 229.13266 166.32785 
L 229.066922 162.417734 
L 228.678271 158.519156 
L 227.964753 154.659916 
L 226.926931 150.868514 
L 225.567719 147.173969 
L 223.892531 143.60564 
L 221.909431 140.19302 
L 219.629188 136.965532 
L 217.065397 133.952285 
L 214.234559 131.181818 
L 211.156088 128.681832 
L 207.852437 126.478896 
L 204.349052 124.598134 
L 200.6744 123.062883 
L 196.859926 121.89435 
L 192.939999 121.111244 
L 188.951816 120.729355 
L 184.935257 120.76128 
L 180.932741 121.21554 
L 176.988936 122.096886 
L 173.150525 123.40521 
L 169.465825 125.135326 
L 165.984376 127.276469 
L 162.756413 129.811798 
L 159.832293 132.71796 
L 157.261696 135.964516 
L 155.092936 139.513692 
L 153.371874 143.319849 
L 152.140818 147.329183 
L 151.437222 151.479518 
L 151.292167 155.700166 
L 151.728629 159.912044 
L 152.759456 164.027935 
L 154.385202 167.953197 
L 156.591524 171.586866 
L 159.346402 174.823404 
L 162.59714 177.55525 
L 166.267185 179.676537 
L 170.253121 181.088235 
L 174.422173 181.705168 
L 178.610944 181.465351 
L 182.626535 180.34203 
L 186.251931 178.358344 
L 189.258163 175.60358 
L 191.4263 172.248276 
L 192.581614 168.552167 
L 192.638678 164.855106 
L 191.647882 161.539762 
L 189.823148 158.961305 
L 187.524032 157.357213 
L 185.180233 156.7741 
L 183.178821 157.0533 
L 181.763916 157.89034 
L 180.995031 158.940833 
L 180.775356 159.921102 
L 180.923736 160.663682 
L 181.250349 161.119028 
L 181.607269 161.32131 
L 182.111145 161.265568 
L 182.261113 161.036251 
L 182.144857 160.865092 
L 182.104044 160.909425 
L 182.119127 160.912658 
" clip-path="url(#p70154bddc6)" style="fill: none; stroke: #1f77b4; stroke-width: 1.5; stroke-linecap: square"/>
   </g>
   <g id="line2d_16">
    <path d="M 308.938494 160.918123 
L 308.819619 156.764985 
L 308.356817 150.406936 
L 307.565099 144.040349 
L 306.071483 135.099543 
L 305.205152 130.418815 
L 303.921987 125.737861 
L 302.369858 121.121101 
L 300.665085 116.536652 
L 298.790317 111.964899 
L 296.726789 107.417518 
L 294.460766 102.921539 
L 292.005589 98.494832 
L 289.358145 94.151945 
L 286.524834 89.902936 
L 283.522256 85.748613 
L 280.344704 81.701616 
L 276.996391 77.773827 
L 273.483556 73.974716 
L 269.812261 70.312337 
L 265.98906 66.79364 
L 262.019016 63.426943 
L 257.909527 60.21891 
L 253.666953 57.176732 
L 249.298146 54.307392 
L 244.810896 51.616549 
L 240.21264 49.109989 
L 235.511276 46.792994 
L 230.714798 44.670556 
L 225.831459 42.74727 
L 220.869753 41.02721 
L 215.838251 39.514214 
L 210.74575 38.211577 
L 205.601145 37.122241 
L 200.413444 36.248767 
L 195.191785 35.593237 
L 189.945373 35.157335 
L 184.683485 34.942439 
L 179.415465 34.949337 
L 174.150633 35.178371 
L 168.898402 35.629706 
L 163.668124 36.302972 
L 158.469154 37.197324 
L 153.310808 38.311535 
L 148.202342 39.64395 
L 143.152942 41.192521 
L 138.171698 42.954801 
L 133.267602 44.927935 
L 128.449516 47.108679 
L 123.726154 49.493382 
L 119.1061 52.078039 
L 114.597727 54.858231 
L 110.209242 57.829194 
L 105.94864 60.985798 
L 101.823699 64.32257 
L 97.841959 67.833685 
L 94.010746 71.513037 
L 90.337025 75.354082 
L 86.827675 79.349999 
L 83.488915 83.493977 
L 80.327132 87.778435 
L 77.348112 92.1958 
L 74.557384 96.738217 
L 71.960127 101.397565 
L 69.561193 106.165504 
L 67.365076 111.03349 
L 65.375892 115.992771 
L 63.597407 121.034423 
L 62.032993 126.149355 
L 60.68564 131.328335 
L 59.557962 136.561996 
L 58.652159 141.840863 
L 57.970023 147.155359 
L 57.512952 152.495838 
L 57.281836 157.852587 
L 57.277509 163.215858 
L 57.499808 168.575849 
L 57.948727 173.922796 
L 58.623507 179.246919 
L 59.523096 184.538471 
L 60.645998 189.787756 
L 61.990306 194.985136 
L 63.553697 200.121061 
L 65.333476 205.186076 
L 67.326534 210.170848 
L 69.529369 215.066176 
L 71.938079 219.863019 
L 74.548399 224.552485 
L 77.355674 229.125888 
L 80.354891 233.574733 
L 83.540663 237.890749 
L 86.90728 242.065884 
L 90.448678 246.092343 
L 94.15847 249.962587 
L 98.029885 253.669405 
L 102.055958 257.205791 
L 106.229372 260.565085 
L 110.542531 263.740947 
L 114.987563 266.727366 
L 119.556357 269.518663 
L 124.240551 272.109517 
L 129.031573 274.494977 
L 133.92061 276.670416 
L 138.898675 278.631711 
L 143.956649 280.374948 
L 149.085139 281.89676 
L 154.27471 283.19413 
L 159.515776 284.264457 
L 164.798562 285.105511 
L 170.11334 285.715599 
L 175.450171 286.093351 
L 180.799165 286.237826 
L 186.150317 286.148662 
L 191.493621 285.825807 
L 196.819101 285.269567 
L 202.116768 284.480764 
L 207.376667 283.460727 
L 212.588906 282.211148 
L 217.743662 280.734182 
L 222.831199 279.032396 
L 227.841897 277.108783 
L 232.766252 274.966751 
L 237.594921 272.610149 
L 242.318697 270.043198 
L 246.928581 267.270569 
L 251.415764 264.297307 
L 255.771635 261.128835 
L 259.987838 257.770973 
L 264.05626 254.229914 
L 267.969007 250.512162 
L 271.718555 246.624654 
L 275.29764 242.574616 
L 278.699225 238.369557 
L 281.916734 234.017365 
L 284.943701 229.526179 
L 287.774438 224.904433 
L 290.403167 220.160903 
L 292.824529 215.304432 
L 295.034054 210.343999 
L 297.026963 205.289919 
L 298.799344 200.150492 
L 300.347748 194.936378 
L 301.668569 189.657483 
L 302.759409 184.323416 
L 303.617801 178.944897 
L 304.242062 173.532066 
L 304.629765 168.095301 
L 304.78176 162.645255 
L 304.695881 157.192334 
L 304.372774 151.74693 
L 303.812741 146.319938 
L 303.016495 140.921789 
L 301.985493 135.563004 
L 300.721357 130.254064 
L 299.226495 125.005363 
L 297.503468 119.827194 
L 295.555415 114.729777 
L 293.385992 109.723123 
L 290.999142 104.817148 
L 288.399355 100.021566 
L 285.591518 95.345896 
L 282.580926 90.799452 
L 279.37331 86.391292 
L 275.974764 82.13025 
L 272.391815 78.024859 
L 268.63135 74.083363 
L 264.70056 70.313784 
L 260.6071 66.723686 
L 256.358906 63.320357 
L 251.964244 60.110737 
L 247.431678 57.101388 
L 242.770072 54.298488 
L 237.988573 51.707806 
L 233.096571 49.334723 
L 228.103712 47.184168 
L 223.019854 45.260641 
L 217.855049 43.568211 
L 212.619549 42.110513 
L 207.323797 40.890636 
L 201.97831 39.911126 
L 196.593749 39.174468 
L 191.180881 38.682653 
L 185.750356 38.436072 
L 180.313332 38.435249 
L 174.881193 38.681297 
L 169.464504 39.17453 
L 164.073692 39.912389 
L 158.719271 40.894292 
L 153.413072 42.119983 
L 148.167267 43.585426 
L 142.991069 45.287004 
L 137.892919 47.223693 
L 132.885425 49.391562 
L 127.979853 51.785055 
L 123.184812 54.400005 
L 118.510059 57.231628 
L 113.965622 60.274088 
L 109.560789 63.52142 
L 105.304633 66.96705 
L 101.205982 70.604205 
L 97.273353 74.425612 
L 93.514888 78.423464 
L 89.938438 82.589806 
L 86.551412 86.916231 
L 83.360932 91.393932 
L 80.373724 96.013848 
L 77.59603 100.766606 
L 75.033703 105.642503 
L 72.692188 110.631586 
L 70.576459 115.72367 
L 68.69101 120.908324 
L 67.039887 126.174906 
L 65.626676 131.512602 
L 64.454442 136.910419 
L 63.525756 142.357242 
L 62.842702 147.841825 
L 62.406827 153.352835 
L 62.219232 158.878849 
L 62.280354 164.408431 
L 62.590246 169.930106 
L 63.148517 175.432387 
L 63.954081 180.903825 
L 65.00541 186.333021 
L 66.30046 191.708646 
L 67.836648 197.019474 
L 69.610907 202.254393 
L 71.619677 207.402441 
L 73.858892 212.452823 
L 76.324 217.394939 
L 79.009952 222.218392 
L 81.911261 226.913033 
L 85.021966 231.468977 
L 88.335651 235.876596 
L 91.845483 240.126569 
L 95.544198 244.209923 
L 99.424075 248.118055 
L 103.477196 251.842508 
L 107.695014 255.375506 
L 112.068766 258.709496 
L 116.589332 261.837352 
L 121.247266 264.752393 
L 126.032833 267.448373 
L 130.935994 269.91951 
L 135.946477 272.160456 
L 141.053758 274.166407 
L 146.247093 275.932989 
L 151.515552 277.456368 
L 156.848043 278.73318 
L 162.233299 279.760639 
L 167.659961 280.536394 
L 173.116546 281.058768 
L 178.591513 281.326422 
L 184.073247 281.338965 
L 189.550138 281.0957 
L 195.010544 280.597454 
L 200.442853 279.845021 
L 205.835506 278.83986 
L 211.177029 277.584012 
L 216.45599 276.080043 
L 221.661094 274.331017 
L 226.781313 272.340506 
L 231.80567 270.112562 
L 236.723207 267.652093 
L 241.523555 264.964125 
L 246.196447 262.053856 
L 250.731603 258.927946 
L 255.11941 255.592955 
L 259.350329 252.055379 
L 263.415206 248.323154 
L 267.305308 244.40416 
L 271.01216 240.306488 
L 274.527619 236.038975 
L 277.844134 231.610693 
L 280.954382 227.030979 
L 283.851573 222.309682 
L 286.52935 217.456867 
L 288.981832 212.482883 
L 291.203527 207.398459 
L 293.189498 202.214539 
L 294.935459 196.94196 
L 296.437302 191.59238 
L 297.691705 186.177182 
L 298.695762 180.708137 
L 299.447144 175.196982 
L 299.94402 169.655686 
L 300.185293 164.096237 
L 300.169898 158.530696 
L 299.898292 152.971188 
L 299.370339 147.429777 
L 298.587191 141.918581 
L 297.55036 136.449622 
L 296.261928 131.034864 
L 294.724548 125.686176 
L 292.941365 120.415315 
L 290.916101 115.233858 
L 288.652997 110.153226 
L 286.156819 105.184651 
L 283.432885 100.339101 
L 280.486965 95.627345 
L 277.325374 91.059838 
L 273.954882 86.646757 
L 270.38274 82.397958 
L 266.616643 78.322968 
L 262.664757 74.430901 
L 258.535655 70.730518 
L 254.238305 67.230199 
L 249.782076 63.937862 
L 245.176702 60.861003 
L 240.432279 58.006642 
L 235.55921 55.381328 
L 230.568218 52.991107 
L 225.470303 50.841532 
L 220.276733 48.937627 
L 214.999022 47.283855 
L 209.648843 45.884162 
L 204.238114 44.741991 
L 198.778907 43.860056 
L 193.283418 43.240597 
L 187.763915 42.88535 
L 182.23273 42.795334 
L 176.702477 42.970944 
L 171.185439 43.412177 
L 165.694076 44.118327 
L 160.240996 45.087976 
L 154.838337 46.319175 
L 149.49851 47.809576 
L 144.233726 49.555959 
L 139.055926 51.554563 
L 133.976947 53.801254 
L 129.008495 56.291182 
L 124.162078 59.018806 
L 119.44877 61.97825 
L 114.87949 65.163029 
L 110.464901 68.566053 
L 106.215228 72.179784 
L 102.140418 75.996161 
L 98.250001 80.006654 
L 94.553159 84.202306 
L 91.058561 88.573577 
L 87.774502 93.110623 
L 84.708781 97.803172 
L 81.868729 102.640533 
L 79.261174 107.611689 
L 76.892394 112.705265 
L 74.768145 117.909582 
L 72.89365 123.21268 
L 71.273522 128.602337 
L 69.911813 134.066093 
L 68.812008 139.591294 
L 67.976944 145.16511 
L 67.408875 150.774562 
L 67.109377 156.406567 
L 67.079289 162.047928 
L 67.319421 167.685449 
L 67.829129 173.305877 
L 68.607638 178.895968 
L 69.65342 184.442527 
L 70.964261 189.932395 
L 72.537297 195.352511 
L 74.369051 200.689976 
L 76.455438 205.932101 
L 78.7918 211.066444 
L 81.372928 216.080829 
L 84.192953 220.963294 
L 87.245386 225.701934 
L 90.523159 230.285031 
L 94.018653 234.70135 
L 97.723784 238.940015 
L 101.629901 242.990599 
L 105.72805 246.843439 
L 110.008741 250.489799 
L 114.462062 253.920938 
L 119.077252 257.1285 
L 123.842924 260.104543 
L 128.747607 262.84124 
L 133.779872 265.331373 
L 138.927705 267.568729 
L 144.178581 269.547545 
L 149.520024 271.262559 
L 154.939688 272.709805 
L 160.423985 273.885745 
L 165.959811 274.787128 
L 171.533871 275.411491 
L 177.132487 275.757209 
L 182.742127 275.823212 
L 188.349141 275.608828 
L 193.93972 275.11452 
L 199.500209 274.341281 
L 205.017057 273.290667 
L 210.476645 271.965037 
L 215.865536 270.36744 
L 221.17049 268.501531 
L 226.378382 266.371662 
L 231.476321 263.982889 
L 236.451687 261.340866 
L 241.29214 258.451895 
L 245.985628 255.322926 
L 250.520456 251.961495 
L 254.885309 248.375716 
L 259.069251 244.574289 
L 263.061846 240.566517 
L 266.852949 236.362072 
L 270.433086 231.971313 
L 273.793204 227.404999 
L 276.924797 222.674335 
L 279.819893 217.790968 
L 282.471119 212.766955 
L 284.871695 207.614712 
L 287.015468 202.346997 
L 288.89689 196.976881 
L 290.511081 191.517712 
L 291.853829 185.983074 
L 292.921572 180.386776 
L 293.711446 174.742813 
L 294.221279 169.065276 
L 294.44972 163.36839 
L 294.395894 157.666484 
L 294.059619 151.97388 
L 293.44174 146.304894 
L 292.543587 140.673831 
L 291.367198 135.094902 
L 289.915401 129.582237 
L 288.191676 124.149796 
L 286.200182 118.811346 
L 283.94578 113.580465 
L 281.434015 108.470471 
L 278.671062 103.494406 
L 275.66378 98.664962 
L 272.419632 93.994501 
L 268.946702 89.494997 
L 265.253666 85.178008 
L 261.349782 81.054659 
L 257.244856 77.135543 
L 252.949227 73.430814 
L 248.473706 69.950087 
L 243.82962 66.702394 
L 239.028713 63.696207 
L 234.083168 60.939386 
L 229.005555 58.439154 
L 223.808796 56.202118 
L 218.506141 54.234199 
L 213.111135 52.540637 
L 207.637584 51.125997 
L 202.099512 49.994126 
L 196.511141 49.148144 
L 190.886835 48.590434 
L 185.241093 48.322602 
L 179.588466 48.345661 
L 173.943589 48.659754 
L 168.321066 49.264229 
L 162.73548 50.157823 
L 157.201349 51.338411 
L 151.73309 52.803152 
L 146.344963 54.548471 
L 141.051047 56.570061 
L 135.86522 58.862888 
L 130.801084 61.4212 
L 125.871956 64.238558 
L 121.090845 67.307807 
L 116.470371 70.62114 
L 112.022778 74.170103 
L 107.759891 77.945606 
L 103.69307 81.93796 
L 99.833117 86.136793 
L 96.190451 90.531338 
L 92.774834 95.110175 
L 89.595498 99.861402 
L 86.661054 104.772646 
L 83.979491 109.831081 
L 81.558168 115.023459 
L 79.403751 120.336164 
L 77.522214 125.755219 
L 75.918839 131.266336 
L 74.598179 136.854957 
L 73.564052 142.506274 
L 72.819493 148.205289 
L 72.366799 153.936834 
L 72.207454 159.685627 
L 72.342307 165.436157 
L 72.771242 171.173396 
L 73.493468 176.881583 
L 74.507353 182.545432 
L 75.810493 188.149655 
L 77.399696 193.679078 
L 79.271006 199.118698 
L 81.419701 204.453705 
L 83.840289 209.669535 
L 86.526522 214.751917 
L 89.471424 219.686893 
L 92.667303 224.460869 
L 96.10576 229.060655 
L 99.777713 233.473505 
L 103.673412 237.687144 
L 107.782525 241.689771 
L 112.094019 245.470198 
L 116.596332 249.017769 
L 121.277334 252.322451 
L 126.124378 255.374837 
L 131.124318 258.166199 
L 136.263554 260.688496 
L 141.528057 262.934423 
L 146.903417 264.897393 
L 152.374875 266.571597 
L 157.927363 267.952029 
L 163.545544 269.034428 
L 169.213854 269.815401 
L 174.916542 270.292377 
L 180.63772 270.463553 
L 186.361403 270.328234 
L 192.071558 269.886243 
L 197.752123 269.138541 
L 203.387051 268.086727 
L 208.960342 266.733265 
L 214.456156 265.08138 
L 219.858937 263.135125 
L 225.153394 260.899603 
L 230.324514 258.381099 
L 235.357584 255.586861 
L 240.238136 252.524903 
L 244.951902 249.203724 
L 249.485001 245.632154 
L 253.824002 241.81952 
L 257.95595 237.776015 
L 261.86871 233.512914 
L 265.550648 229.042211 
L 268.99102 224.37681 
L 272.17986 219.529999 
L 275.107907 214.515471 
L 277.766533 209.347466 
L 280.147726 204.040699 
L 282.244128 198.610411 
L 284.04911 193.07228 
L 285.556916 187.442292 
L 286.762683 181.736728 
L 287.662528 175.972139 
L 288.253448 170.165282 
L 288.533376 164.333094 
L 288.501104 158.492654 
L 288.15637 152.661068 
L 287.499655 146.85553 
L 286.532544 141.093176 
L 285.257537 135.391066 
L 283.678044 129.766127 
L 281.798357 124.235103 
L 279.623659 118.814512 
L 277.160036 113.520592 
L 274.414467 108.369246 
L 271.394794 103.376012 
L 268.109694 98.555978 
L 264.568651 93.923733 
L 260.781945 89.493369 
L 256.760658 85.278407 
L 252.516542 81.291705 
L 248.062103 77.545507 
L 243.410497 74.051405 
L 238.575555 70.82023 
L 233.571651 67.862021 
L 228.413677 65.186042 
L 223.117055 62.800702 
L 217.697731 60.71351 
L 212.172016 58.931172 
L 206.556558 57.459468 
L 200.868375 56.303181 
L 195.124735 55.466197 
L 189.343074 54.951477 
L 183.541054 54.760791 
L 177.736429 54.895237 
L 171.946951 55.354648 
L 166.190404 56.138029 
L 160.484561 57.243287 
L 154.847006 58.667345 
L 149.295167 60.406159 
L 143.846299 62.454683 
L 138.517342 64.806908 
L 133.324897 67.455885 
L 128.285189 70.393695 
L 123.414018 73.611524 
L 118.726694 77.099672 
L 114.238081 80.847463 
L 109.962052 84.843723 
L 105.912458 89.076055 
L 102.102097 93.531515 
L 98.543109 98.196393 
L 95.246884 103.056297 
L 92.224027 108.096191 
L 89.4843 113.30043 
L 87.03661 118.652824 
L 84.888949 124.136675 
L 83.048379 129.734828 
L 81.521027 135.42973 
L 80.312027 141.203483 
L 79.425555 147.037901 
L 78.864702 152.914555 
L 78.631647 158.814851 
L 78.727367 164.720062 
L 79.151833 170.611403 
L 79.904218 176.470105 
L 80.982401 182.27744 
L 82.383231 188.014811 
L 84.102573 193.663793 
L 86.13525 199.206204 
L 88.475081 204.624158 
L 91.114865 209.90013 
L 94.046444 215.016994 
L 97.26068 219.958112 
L 100.747518 224.707351 
L 104.495988 229.249173 
L 108.49424 233.568675 
L 112.72963 237.651585 
L 117.188649 241.484437 
L 121.857075 245.0545 
L 126.719968 248.349866 
L 131.761719 251.359487 
L 136.966086 254.073234 
L 142.316261 256.481881 
L 147.794897 258.577205 
L 153.384192 260.351967 
L 159.065932 261.799961 
L 164.821554 262.916026 
L 170.632204 263.696078 
L 176.478794 264.137144 
L 182.342057 264.237284 
L 188.202638 263.995949 
L 194.041097 263.413376 
L 199.838047 262.490977 
L 205.574172 261.231434 
L 211.230309 259.638493 
L 216.787504 257.717059 
L 222.227101 255.4732 
L 227.530792 252.914107 
L 232.680629 250.048008 
L 237.65904 246.884076 
L 242.448882 243.432366 
L 247.033567 239.703846 
L 251.397255 235.710505 
L 255.524917 231.465403 
L 259.402586 226.982808 
L 263.016959 222.277762 
L 266.355614 217.366125 
L 269.406827 212.264291 
L 272.159612 206.98924 
L 274.603883 201.558665 
L 276.730591 195.990948 
L 278.531859 190.305101 
L 280.001008 184.520559 
L 281.132515 178.657057 
L 281.921992 172.734615 
L 282.366227 166.77355 
L 282.463198 160.794449 
L 282.211957 154.818086 
L 281.612765 148.865258 
L 280.667211 142.956759 
L 279.378022 137.11328 
L 277.749163 131.355375 
L 275.78578 125.703375 
L 273.494203 120.177315 
L 270.881939 114.796871 
L 267.957675 109.581263 
L 264.73121 104.549222 
L 261.213463 99.718895 
L 257.416424 95.107778 
L 253.353103 90.73266 
L 249.037568 86.609513 
L 244.484786 82.753504 
L 239.710628 79.178917 
L 234.731858 75.899065 
L 229.566023 72.926264 
L 224.231411 70.271781 
L 218.746987 67.945783 
L 213.132342 65.957269 
L 207.407619 64.314048 
L 201.593434 63.02271 
L 195.710816 62.088603 
L 189.781125 61.515796 
L 183.825977 61.30688 
L 177.867171 61.463528 
L 171.926615 61.985671 
L 166.02623 62.872088 
L 160.188006 64.120145 
L 154.433291 65.725918 
L 148.783925 67.684038 
L 143.261014 69.987887 
L 137.88535 72.629504 
L 132.677288 75.599653 
L 127.656613 78.887796 
L 122.8425 82.482173 
L 118.25342 86.36983 
L 113.907051 90.536618 
L 109.820313 94.967375 
L 106.009084 99.645755 
L 102.488327 104.554453 
L 99.271957 109.675228 
L 96.372775 114.988949 
L 93.802423 120.475666 
L 91.571333 126.114685 
L 89.688664 131.884647 
L 88.162282 137.7636 
L 86.998707 143.729081 
L 86.203088 149.758208 
L 85.779122 155.827757 
L 85.728983 161.91424 
L 86.053881 167.994046 
L 86.752918 174.043458 
L 87.824126 180.0388 
L 89.263925 185.956513 
L 91.067304 191.773253 
L 93.227825 197.465972 
L 95.737596 203.012034 
L 98.587309 208.389288 
L 101.766275 213.576163 
L 105.262449 218.551769 
L 109.062478 223.295965 
L 113.151755 227.789464 
L 117.514459 232.01388 
L 122.13357 235.9519 
L 126.991032 239.587226 
L 132.067725 242.90475 
L 137.343582 245.890572 
L 142.797648 248.53209 
L 148.408169 250.818037 
L 154.152674 252.738558 
L 160.008058 254.285246 
L 165.950678 255.451186 
L 171.956438 256.23097 
L 178.000895 256.620857 
L 184.059349 256.618381 
L 190.106946 256.223302 
L 196.118803 255.436179 
L 202.07009 254.259688 
L 207.936135 252.698071 
L 213.692526 250.757169 
L 219.315198 248.444439 
L 224.78054 245.768927 
L 230.065503 242.741217 
L 235.147691 239.373363 
L 240.005484 235.678874 
L 244.618132 231.67266 
L 248.965871 227.371015 
L 253.029873 222.791433 
L 256.792601 217.952899 
L 260.237604 212.875412 
L 263.349738 207.580092 
L 266.115217 202.089086 
L 268.521712 196.425479 
L 270.558347 190.613136 
L 272.215812 184.676689 
L 273.486348 178.641391 
L 274.363822 172.533008 
L 274.84376 166.377714 
L 274.923414 160.201995 
L 274.601534 154.032472 
L 273.87897 147.895915 
L 272.758116 141.819026 
L 271.243186 135.828371 
L 269.340134 129.950257 
L 267.056565 124.210616 
L 264.401799 118.634887 
L 261.386803 113.247893 
L 258.024199 108.073709 
L 254.328183 103.135584 
L 250.314508 98.455811 
L 246.000416 94.055626 
L 241.404521 89.955181 
L 236.546784 86.173323 
L 231.448418 82.727593 
L 226.131796 79.634091 
L 220.620382 76.907411 
L 214.938624 74.56054 
L 209.111847 72.604833 
L 203.166144 71.049922 
L 197.128269 69.903693 
L 191.025515 69.172201 
L 184.885598 68.859595 
L 178.736537 68.968226 
L 172.606525 69.498528 
L 166.523808 70.44888 
L 160.516544 71.815829 
L 154.612687 73.593913 
L 148.839975 75.77575 
L 143.225176 78.352215 
L 137.795176 81.312047 
L 132.575701 84.642286 
L 127.591698 88.328139 
L 122.867158 92.353085 
L 118.424945 96.698876 
L 114.286775 101.345769 
L 110.472954 106.272328 
L 107.002422 111.455797 
L 103.892554 116.872023 
L 101.15911 122.495631 
L 98.816133 128.300109 
L 96.875855 134.257926 
L 95.348636 140.340664 
L 94.242913 146.519138 
L 93.565124 152.763538 
L 93.319544 159.043562 
L 93.508612 165.328571 
L 94.132449 171.58771 
L 95.189088 177.790083 
L 96.674423 183.904889 
L 98.582183 189.901586 
L 100.903998 195.750032 
L 103.62937 201.420655 
L 106.745704 206.884595 
L 110.238404 212.113839 
L 112.120777 214.631973 
L 114.090862 217.081397 
L 116.146288 219.458914 
L 118.284561 221.761418 
L 120.503075 223.9859 
L 122.799162 226.129356 
L 125.169959 228.189004 
L 127.612546 230.162098 
L 130.123904 232.045997 
L 132.700911 233.838165 
L 135.340351 235.536185 
L 138.038915 237.137753 
L 140.793208 238.64068 
L 143.599753 240.042891 
L 146.454999 241.342439 
L 149.355309 242.537503 
L 152.296983 243.626381 
L 155.276259 244.607503 
L 158.289311 245.47944 
L 161.332259 246.240879 
L 164.401176 246.890662 
L 167.492088 247.427766 
L 170.600981 247.85129 
L 173.723808 248.160532 
L 176.856486 248.354934 
L 179.994925 248.434038 
L 183.134985 248.397555 
L 186.27252 248.245537 
L 189.403392 247.977875 
L 192.523438 247.594768 
L 195.628499 247.096613 
L 198.714421 246.483924 
L 201.777058 245.757365 
L 204.812281 244.917765 
L 207.815983 243.966088 
L 210.784086 242.903443 
L 213.71254 241.731095 
L 216.597336 240.450455 
L 219.434509 239.063085 
L 222.220151 237.570698 
L 224.950404 235.975149 
L 227.621473 234.278442 
L 230.229635 232.482726 
L 232.771239 230.590293 
L 235.242712 228.603579 
L 237.640571 226.525154 
L 239.961425 224.357733 
L 242.202018 222.104182 
L 244.35906 219.767393 
L 246.429528 217.350516 
L 248.410439 214.856763 
L 250.298925 212.289463 
L 252.092239 209.65206 
L 253.787758 206.948106 
L 255.382984 204.181264 
L 256.875553 201.355292 
L 258.263231 198.474051 
L 259.543916 195.541481 
L 260.71566 192.561618 
L 261.776651 189.538576 
L 262.725227 186.476541 
L 263.559876 183.379769 
L 264.279247 180.252583 
L 264.882136 177.099359 
L 265.367507 173.924527 
L 265.734497 170.732564 
L 265.982389 167.527981 
L 266.110691 164.315332 
L 266.118897 161.099191 
L 266.007097 157.884156 
L 265.775031 154.67484 
L 265.422901 151.475855 
L 264.951032 148.291825 
L 264.359923 145.127363 
L 263.650248 141.987072 
L 262.822866 138.875534 
L 261.878794 135.797307 
L 260.819216 132.756914 
L 259.645501 129.758842 
L 258.359184 126.807528 
L 256.961975 123.907357 
L 255.455745 121.06266 
L 253.842539 118.277695 
L 252.124565 115.55665 
L 250.304191 112.903634 
L 248.383948 110.322669 
L 246.366524 107.817685 
L 244.254756 105.392517 
L 242.051627 103.050901 
L 239.760298 100.796427 
L 237.384001 98.632623 
L 234.926204 96.562841 
L 232.390438 94.590344 
L 229.78039 92.718241 
L 227.099868 90.949503 
L 224.352799 89.286958 
L 221.543224 87.733287 
L 218.675294 86.291015 
L 215.753265 84.962495 
L 212.781489 83.74993 
L 209.764412 82.655353 
L 206.706562 81.680617 
L 203.612548 80.8274 
L 200.48705 80.097206 
L 197.334816 79.49135 
L 194.160649 79.010972 
L 190.969405 78.657012 
L 187.765987 78.430234 
L 184.555323 78.331131 
L 181.342389 78.360177 
L 178.132179 78.517321 
L 174.929685 78.802704 
L 171.739918 79.216095 
L 168.56789 79.757007 
L 165.418598 80.42481 
L 162.297028 81.218654 
L 159.208134 82.137491 
L 156.156843 83.180085 
L 153.148036 84.344992 
L 150.18655 85.630568 
L 147.277163 87.034972 
L 144.424589 88.556168 
L 141.633466 90.191924 
L 138.908357 91.939817 
L 136.253733 93.797237 
L 133.673974 95.761388 
L 131.17335 97.829292 
L 128.756029 99.997793 
L 126.426059 102.263573 
L 124.187347 104.623108 
L 122.043653 107.072697 
L 119.99866 109.608566 
L 118.055862 112.226718 
L 116.218604 114.923016 
L 114.490072 117.693183 
L 112.873288 120.532801 
L 111.371103 123.437323 
L 109.986189 126.402076 
L 108.721035 129.422271 
L 107.577945 132.493006 
L 106.559027 135.609278 
L 105.6662 138.765983 
L 104.90116 141.957935 
L 104.26542 145.179867 
L 103.760282 148.426437 
L 103.386822 151.692242 
L 103.145887 154.971829 
L 103.038098 158.259538 
L 103.063912 161.55023 
L 103.223571 164.838026 
L 103.516986 168.117384 
L 103.943913 171.382721 
L 104.503896 174.628448 
L 105.196188 177.848979 
L 106.019851 181.038751 
L 106.973716 184.192225 
L 108.056383 187.303908 
L 109.266225 190.368352 
L 110.601386 193.380166 
L 112.059794 196.334024 
L 113.639124 199.224689 
L 115.336867 202.046997 
L 117.150286 204.795883 
L 119.076415 207.466395 
L 121.112097 210.053688 
L 123.253962 212.553039 
L 125.498433 214.959869 
L 127.841752 217.269726 
L 130.279986 219.47828 
L 132.808949 221.581453 
L 135.424328 223.575266 
L 138.121628 225.455938 
L 140.896179 227.219876 
L 143.743152 228.863683 
L 146.657569 230.384161 
L 149.634294 231.778332 
L 152.66806 233.043428 
L 155.75347 234.176896 
L 158.885002 235.176411 
L 162.057024 236.039883 
L 165.263803 236.765453 
L 168.499512 237.351484 
L 171.758249 237.796601 
L 175.034034 238.099674 
L 178.320834 238.259816 
L 181.612556 238.276361 
L 184.903102 238.149118 
L 188.186304 237.877893 
L 191.456011 237.462847 
L 194.706057 236.904419 
L 197.93029 236.20338 
L 201.122573 235.360752 
L 204.276804 234.377816 
L 207.386921 233.256131 
L 210.446921 231.997532 
L 213.450859 230.604118 
L 216.392871 229.078266 
L 219.267175 227.422612 
L 222.068088 225.640051 
L 224.790034 223.733735 
L 227.427554 221.707076 
L 229.975323 219.563733 
L 232.428159 217.307609 
L 234.78102 214.942864 
L 237.029069 212.47386 
L 239.167611 209.905226 
L 241.192148 207.241792 
L 243.098384 204.488598 
L 244.882238 201.650897 
L 246.539853 198.734139 
L 248.0676 195.74396 
L 249.462091 192.686172 
L 250.720194 189.566759 
L 251.839028 186.391865 
L 252.815984 183.167777 
L 253.648721 179.90092 
L 254.33518 176.597843 
L 254.873589 173.265207 
L 255.262451 169.909771 
L 255.500588 166.538386 
L 255.58709 163.157962 
L 255.521425 159.77549 
L 255.303435 156.398002 
L 254.932991 153.032548 
L 254.410496 149.686206 
L 253.736664 146.366059 
L 252.912519 143.079179 
L 251.939396 139.832613 
L 250.81895 136.63336 
L 249.553165 133.48837 
L 248.144342 130.40452 
L 246.595115 127.388593 
L 244.908425 124.447285 
L 243.087534 121.587159 
L 241.136009 118.814656 
L 239.057729 116.136063 
L 236.856877 113.557509 
L 234.537916 111.084948 
L 232.105622 108.724124 
L 229.565077 106.480549 
L 226.921557 104.359588 
L 224.180651 102.366322 
L 221.348204 100.505584 
L 218.430303 98.781943 
L 215.433266 97.199695 
L 212.363633 95.762848 
L 209.228152 94.475107 
L 206.033776 93.33986 
L 202.787634 92.360175 
L 199.497029 91.538785 
L 196.169414 90.878076 
L 192.812386 90.38009 
L 189.433662 90.046499 
L 186.041067 89.878575 
L 182.642507 89.877293 
L 179.245989 90.043128 
L 175.85954 90.376275 
L 172.49124 90.876484 
L 169.149185 91.543103 
L 165.84147 92.375071 
L 162.576169 93.370934 
L 159.361314 94.528836 
L 156.204876 95.84651 
L 153.114749 97.321282 
L 150.098726 98.950076 
L 147.164477 100.72941 
L 144.319531 102.655404 
L 141.571263 104.723792 
L 138.926858 106.929907 
L 136.393299 109.268708 
L 133.9774 111.734822 
L 131.68558 114.322361 
L 129.524178 117.025265 
L 127.49917 119.837047 
L 125.61623 122.750884 
L 123.880733 125.759647 
L 122.297704 128.855895 
L 120.871831 132.031902 
L 119.607417 135.27966 
L 118.508387 138.590913 
L 117.578261 141.957158 
L 116.82015 145.369678 
L 116.236736 148.819557 
L 115.830244 152.297693 
L 115.6025 155.794835 
L 115.554645 159.301589 
L 115.687757 162.80846 
L 116.002052 166.305702 
L 116.497435 169.784076 
L 117.173241 173.233582 
L 118.028311 176.644558 
L 119.060991 180.007337 
L 120.269117 183.312286 
L 121.649997 186.54984 
L 123.200432 189.710534 
L 124.916715 192.785021 
L 126.794612 195.764118 
L 128.829394 198.638821 
L 131.015829 201.400342 
L 133.348183 204.040137 
L 135.820302 206.549878 
L 138.425387 208.921687 
L 141.156364 211.14784 
L 144.005632 213.221048 
L 146.965155 215.134398 
L 150.026484 216.881385 
L 153.18078 218.455927 
L 156.41881 219.852431 
L 159.731003 221.065759 
L 163.107443 222.091299 
L 166.537911 222.924972 
L 170.011904 223.563247 
L 173.518666 224.003163 
L 177.047213 224.24239 
L 180.58638 224.279083 
L 184.124813 224.11234 
L 187.651057 223.741524 
L 191.15355 223.166843 
L 194.620672 222.389148 
L 198.040781 221.410001 
L 201.402253 220.231612 
L 204.693519 218.856891 
L 207.903102 217.289444 
L 211.019664 215.53358 
L 214.032039 213.594299 
L 216.929276 211.477291 
L 219.700684 209.188935 
L 222.335878 206.7363 
L 224.824827 204.127125 
L 227.157813 201.369731 
L 229.325653 198.473203 
L 231.319568 195.447171 
L 233.1313 192.301876 
L 234.753139 189.048134 
L 236.177977 185.697317 
L 237.399323 182.261306 
L 238.411356 178.752476 
L 239.208965 175.183653 
L 239.787775 171.568079 
L 240.144176 167.919366 
L 240.275397 164.251461 
L 240.179476 160.578596 
L 239.85522 156.915231 
L 239.302489 153.276027 
L 238.521986 149.675773 
L 237.515331 146.129332 
L 236.285092 142.651591 
L 234.834798 139.257396 
L 233.168956 135.96149 
L 231.293037 132.77846 
L 229.213507 129.722654 
L 226.937812 126.808127 
L 224.474359 124.048577 
L 221.832541 121.457268 
L 219.02271 119.046921 
L 216.056118 116.829762 
L 212.944963 114.817322 
L 209.702315 113.020438 
L 206.3421 111.449158 
L 202.879063 110.112676 
L 199.328719 109.019269 
L 195.707313 108.176227 
L 192.031757 107.589772 
L 188.319581 107.265037 
L 184.588866 107.206003 
L 180.858157 107.415235 
L 177.146425 107.894188 
L 173.472955 108.642967 
L 169.857272 109.660192 
L 166.319044 110.943089 
L 162.877991 112.487395 
L 159.55378 114.287348 
L 156.365913 116.335637 
L 153.333628 118.623395 
L 150.475765 121.140184 
L 147.810705 123.874034 
L 145.356059 126.811254 
L 143.128832 129.93676 
L 141.145056 133.233842 
L 139.41975 136.684289 
L 137.966757 140.268414 
L 136.798623 143.965116 
L 135.926437 147.751935 
L 135.359719 151.605135 
L 135.106241 155.499794 
L 135.17198 159.409903 
L 135.560628 163.308474 
L 136.274144 167.167707 
L 137.311964 170.959102 
L 138.671176 174.65364 
L 140.346361 178.221962 
L 142.32946 181.634576 
L 144.609703 184.862057 
L 147.173492 187.875298 
L 150.004337 190.645752 
L 153.082803 193.145733 
L 156.386452 195.348664 
L 159.889834 197.229421 
L 163.564484 198.764665 
L 167.378958 199.933191 
L 171.298884 200.716291 
L 175.287065 201.098175 
L 179.303623 201.066257 
L 183.306138 200.611982 
L 187.249942 199.730625 
L 191.088351 198.422293 
L 194.773049 196.692168 
L 198.254496 194.551017 
L 201.482459 192.015682 
L 204.406583 189.109518 
L 206.977176 185.862954 
L 209.145933 182.313771 
L 210.866991 178.507606 
L 212.098047 174.498265 
L 212.801641 170.347925 
L 212.94669 166.127269 
L 212.510229 161.915385 
L 211.479403 157.799489 
L 209.853657 153.874221 
L 207.647335 150.240545 
L 204.892455 147.004002 
L 201.641716 144.27215 
L 197.97167 142.150858 
L 193.985734 140.739153 
L 189.816682 140.122212 
L 185.62791 140.362032 
L 181.612319 141.485342 
L 177.986922 143.469019 
L 174.980684 146.223768 
L 172.812545 149.579066 
L 171.65723 153.275169 
L 171.600166 156.972226 
L 172.590961 160.287563 
L 174.415693 162.866015 
L 176.714807 164.4701 
L 179.058605 165.053207 
L 181.06002 164.773988 
L 182.474921 163.936945 
L 183.243803 162.88645 
L 183.463477 161.906175 
L 183.315095 161.163589 
L 182.988481 160.708237 
L 182.631561 160.505948 
L 182.127681 160.561677 
L 181.977711 160.790975 
L 182.093966 160.962109 
L 182.134763 160.917747 
L 182.119127 160.912658 
" clip-path="url(#p70154bddc6)" style="fill: none; stroke: #ff7f0e; stroke-width: 1.5; stroke-linecap: square"/>
   </g>
   <g id="patch_3">
    <path d="M 42.620313 299.518125 
L 42.620313 22.318125 
" style="fill: none; stroke: #000000; stroke-width: 0.8; stroke-linejoin: miter; stroke-linecap: square"/>
   </g>
   <g id="patch_4">
    <path d="M 321.620313 299.518125 
L 321.620313 22.318125 
" style="fill: none; stroke: #000000; stroke-width: 0.8; stroke-linejoin: miter; stroke-linecap: square"/>
   </g>
   <g id="patch_5">
    <path d="M 42.620313 299.518125 
L 321.620312 299.518125 
" style="fill: none; stroke: #000000; stroke-width: 0.8; stroke-linejoin: miter; stroke-linecap: square"/>
   </g>
   <g id="patch_6">
    <path d="M 42.620313 22.318125 
L 321.620312 22.318125 
" style="fill: none; stroke: #000000; stroke-width: 0.8; stroke-linejoin: miter; stroke-linecap: square"/>
   </g>
   <g id="text_17">
    <!-- Puncture Locations -->
    <g transform="translate(125.114688 16.318125) scale(0.12 -0.12)">
     <defs>
      <path id="DejaVuSans-50" d="M 1259 4147 
L 1259 2394 
L 2053 2394 
Q 2494 2394 2734 2622 
Q 2975 2850 2975 3272 
Q 2975 3691 2734 3919 
Q 2494 4147 2053 4147 
L 1259 4147 
z
M 628 4666 
L 2053 4666 
Q 2838 4666 3239 4311 
Q 3641 3956 3641 3272 
Q 3641 2581 3239 2228 
Q 2838 1875 2053 1875 
L 1259 1875 
L 1259 0 
L 628 0 
L 628 4666 
z
" transform="scale(0.015625)"/>
      <path id="DejaVuSans-75" d="M 544 1381 
L 544 3500 
L 1119 3500 
L 1119 1403 
Q 1119 906 1312 657 
Q 1506 409 1894 409 
Q 2359 409 2629 706 
Q 2900 1003 2900 1516 
L 2900 3500 
L 3475 3500 
L 3475 0 
L 2900 0 
L 2900 538 
Q 2691 219 2414 64 
Q 2138 -91 1772 -91 
Q 1169 -91 856 284 
Q 544 659 544 1381 
z
M 1991 3584 
L 1991 3584 
z
" transform="scale(0.015625)"/>
      <path id="DejaVuSans-6e" d="M 3513 2113 
L 3513 0 
L 2938 0 
L 2938 2094 
Q 2938 2591 2744 2837 
Q 2550 3084 2163 3084 
Q 1697 3084 1428 2787 
Q 1159 2491 1159 1978 
L 1159 0 
L 581 0 
L 581 3500 
L 1159 3500 
L 1159 2956 
Q 1366 3272 1645 3428 
Q 1925 3584 2291 3584 
Q 2894 3584 3203 3211 
Q 3513 2838 3513 2113 
z
" transform="scale(0.015625)"/>
      <path id="DejaVuSans-63" d="M 3122 3366 
L 3122 2828 
Q 2878 2963 2633 3030 
Q 2388 3097 2138 3097 
Q 1578 3097 1268 2742 
Q 959 2388 959 1747 
Q 959 1106 1268 751 
Q 1578 397 2138 397 
Q 2388 397 2633 464 
Q 2878 531 3122 666 
L 3122 134 
Q 2881 22 2623 -34 
Q 2366 -91 2075 -91 
Q 1284 -91 818 406 
Q 353 903 353 1747 
Q 353 2603 823 3093 
Q 1294 3584 2113 3584 
Q 2378 3584 2631 3529 
Q 2884 3475 3122 3366 
z
" transform="scale(0.015625)"/>
      <path id="DejaVuSans-74" d="M 1172 4494 
L 1172 3500 
L 2356 3500 
L 2356 3053 
L 1172 3053 
L 1172 1153 
Q 1172 725 1289 603 
Q 1406 481 1766 481 
L 2356 481 
L 2356 0 
L 1766 0 
Q 1100 0 847 248 
Q 594 497 594 1153 
L 594 3053 
L 172 3053 
L 172 3500 
L 594 3500 
L 594 4494 
L 1172 4494 
z
" transform="scale(0.015625)"/>
      <path id="DejaVuSans-72" d="M 2631 2963 
Q 2534 3019 2420 3045 
Q 2306 3072 2169 3072 
Q 1681 3072 1420 2755 
Q 1159 2438 1159 1844 
L 1159 0 
L 581 0 
L 581 3500 
L 1159 3500 
L 1159 2956 
Q 1341 3275 1631 3429 
Q 1922 3584 2338 3584 
Q 2397 3584 2469 3576 
Q 2541 3569 2628 3553 
L 2631 2963 
z
" transform="scale(0.015625)"/>
      <path id="DejaVuSans-65" d="M 3597 1894 
L 3597 1613 
L 953 1613 
Q 991 1019 1311 708 
Q 1631 397 2203 397 
Q 2534 397 2845 478 
Q 3156 559 3463 722 
L 3463 178 
Q 3153 47 2828 -22 
Q 2503 -91 2169 -91 
Q 1331 -91 842 396 
Q 353 884 353 1716 
Q 353 2575 817 3079 
Q 1281 3584 2069 3584 
Q 2775 3584 3186 3129 
Q 3597 2675 3597 1894 
z
M 3022 2063 
Q 3016 2534 2758 2815 
Q 2500 3097 2075 3097 
Q 1594 3097 1305 2825 
Q 1016 2553 972 2059 
L 3022 2063 
z
" transform="scale(0.015625)"/>
      <path id="DejaVuSans-20" transform="scale(0.015625)"/>
      <path id="DejaVuSans-4c" d="M 628 4666 
L 1259 4666 
L 1259 531 
L 3531 531 
L 3531 0 
L 628 0 
L 628 4666 
z
" transform="scale(0.015625)"/>
      <path id="DejaVuSans-6f" d="M 1959 3097 
Q 1497 3097 1228 2736 
Q 959 2375 959 1747 
Q 959 1119 1226 758 
Q 1494 397 1959 397 
Q 2419 397 2687 759 
Q 2956 1122 2956 1747 
Q 2956 2369 2687 2733 
Q 2419 3097 1959 3097 
z
M 1959 3584 
Q 2709 3584 3137 3096 
Q 3566 2609 3566 1747 
Q 3566 888 3137 398 
Q 2709 -91 1959 -91 
Q 1206 -91 779 398 
Q 353 888 353 1747 
Q 353 2609 779 3096 
Q 1206 3584 1959 3584 
z
" transform="scale(0.015625)"/>
      <path id="DejaVuSans-61" d="M 2194 1759 
Q 1497 1759 1228 1600 
Q 959 1441 959 1056 
Q 959 750 1161 570 
Q 1363 391 1709 391 
Q 2188 391 2477 730 
Q 2766 1069 2766 1631 
L 2766 1759 
L 2194 1759 
z
M 3341 1997 
L 3341 0 
L 2766 0 
L 2766 531 
Q 2569 213 2275 61 
Q 1981 -91 1556 -91 
Q 1019 -91 701 211 
Q 384 513 384 1019 
Q 384 1609 779 1909 
Q 1175 2209 1959 2209 
L 2766 2209 
L 2766 2266 
Q 2766 2663 2505 2880 
Q 2244 3097 1772 3097 
Q 1472 3097 1187 3025 
Q 903 2953 641 2809 
L 641 3341 
Q 956 3463 1253 3523 
Q 1550 3584 1831 3584 
Q 2591 3584 2966 3190 
Q 3341 2797 3341 1997 
z
" transform="scale(0.015625)"/>
      <path id="DejaVuSans-69" d="M 603 3500 
L 1178 3500 
L 1178 0 
L 603 0 
L 603 3500 
z
M 603 4863 
L 1178 4863 
L 1178 4134 
L 603 4134 
L 603 4863 
z
" transform="scale(0.015625)"/>
      <path id="DejaVuSans-73" d="M 2834 3397 
L 2834 2853 
Q 2591 2978 2328 3040 
Q 2066 3103 1784 3103 
Q 1356 3103 1142 2972 
Q 928 2841 928 2578 
Q 928 2378 1081 2264 
Q 1234 2150 1697 2047 
L 1894 2003 
Q 2506 1872 2764 1633 
Q 3022 1394 3022 966 
Q 3022 478 2636 193 
Q 2250 -91 1575 -91 
Q 1294 -91 989 -36 
Q 684 19 347 128 
L 347 722 
Q 666 556 975 473 
Q 1284 391 1588 391 
Q 1994 391 2212 530 
Q 2431 669 2431 922 
Q 2431 1156 2273 1281 
Q 2116 1406 1581 1522 
L 1381 1569 
Q 847 1681 609 1914 
Q 372 2147 372 2553 
Q 372 3047 722 3315 
Q 1072 3584 1716 3584 
Q 2034 3584 2315 3537 
Q 2597 3491 2834 3397 
z
" transform="scale(0.015625)"/>
     </defs>
     <use xlink:href="#DejaVuSans-50"/>
     <use xlink:href="#DejaVuSans-75" transform="translate(58.552734 0)"/>
     <use xlink:href="#DejaVuSans-6e" transform="translate(121.931641 0)"/>
     <use xlink:href="#DejaVuSans-63" transform="translate(185.310547 0)"/>
     <use xlink:href="#DejaVuSans-74" transform="translate(240.291016 0)"/>
     <use xlink:href="#DejaVuSans-75" transform="translate(279.5 0)"/>
     <use xlink:href="#DejaVuSans-72" transform="translate(342.878906 0)"/>
     <use xlink:href="#DejaVuSans-65" transform="translate(381.742188 0)"/>
     <use xlink:href="#DejaVuSans-20" transform="translate(443.265625 0)"/>
     <use xlink:href="#DejaVuSans-4c" transform="translate(475.052734 0)"/>
     <use xlink:href="#DejaVuSans-6f" transform="translate(529.015625 0)"/>
     <use xlink:href="#DejaVuSans-63" transform="translate(590.197266 0)"/>
     <use xlink:href="#DejaVuSans-61" transform="translate(645.177734 0)"/>
     <use xlink:href="#DejaVuSans-74" transform="translate(706.457031 0)"/>
     <use xlink:href="#DejaVuSans-69" transform="translate(745.666016 0)"/>
     <use xlink:href="#DejaVuSans-6f" transform="translate(773.449219 0)"/>
     <use xlink:href="#DejaVuSans-6e" transform="translate(834.630859 0)"/>
     <use xlink:href="#DejaVuSans-73" transform="translate(898.009766 0)"/>
    </g>
   </g>
   <g id="legend_1">
    <g id="patch_7">
     <path d="M 261.876562 59.674375 
L 314.620312 59.674375 
Q 316.620312 59.674375 316.620312 57.674375 
L 316.620312 29.318125 
Q 316.620312 27.318125 314.620312 27.318125 
L 261.876562 27.318125 
Q 259.876562 27.318125 259.876562 29.318125 
L 259.876562 57.674375 
Q 259.876562 59.674375 261.876562 59.674375 
z
" style="fill: #ffffff; opacity: 0.8; stroke: #cccccc; stroke-linejoin: miter"/>
    </g>
    <g id="line2d_17">
     <path d="M 263.876562 35.416562 
L 273.876562 35.416562 
L 283.876562 35.416562 
" style="fill: none; stroke: #1f77b4; stroke-width: 1.5; stroke-linecap: square"/>
    </g>
    <g id="text_18">
     <!-- BH1 -->
     <g transform="translate(291.876562 38.916562) scale(0.1 -0.1)">
      <defs>
       <path id="DejaVuSans-42" d="M 1259 2228 
L 1259 519 
L 2272 519 
Q 2781 519 3026 730 
Q 3272 941 3272 1375 
Q 3272 1813 3026 2020 
Q 2781 2228 2272 2228 
L 1259 2228 
z
M 1259 4147 
L 1259 2741 
L 2194 2741 
Q 2656 2741 2882 2914 
Q 3109 3088 3109 3444 
Q 3109 3797 2882 3972 
Q 2656 4147 2194 4147 
L 1259 4147 
z
M 628 4666 
L 2241 4666 
Q 2963 4666 3353 4366 
Q 3744 4066 3744 3513 
Q 3744 3084 3544 2831 
Q 3344 2578 2956 2516 
Q 3422 2416 3680 2098 
Q 3938 1781 3938 1306 
Q 3938 681 3513 340 
Q 3088 0 2303 0 
L 628 0 
L 628 4666 
z
" transform="scale(0.015625)"/>
       <path id="DejaVuSans-48" d="M 628 4666 
L 1259 4666 
L 1259 2753 
L 3553 2753 
L 3553 4666 
L 4184 4666 
L 4184 0 
L 3553 0 
L 3553 2222 
L 1259 2222 
L 1259 0 
L 628 0 
L 628 4666 
z
" transform="scale(0.015625)"/>
       <path id="DejaVuSans-31" d="M 794 531 
L 1825 531 
L 1825 4091 
L 703 3866 
L 703 4441 
L 1819 4666 
L 2450 4666 
L 2450 531 
L 3481 531 
L 3481 0 
L 794 0 
L 794 531 
z
" transform="scale(0.015625)"/>
      </defs>
      <use xlink:href="#DejaVuSans-42"/>
      <use xlink:href="#DejaVuSans-48" transform="translate(68.603516 0)"/>
      <use xlink:href="#DejaVuSans-31" transform="translate(143.798828 0)"/>
     </g>
    </g>
    <g id="line2d_18">
     <path d="M 263.876562 50.094688 
L 273.876562 50.094688 
L 283.876562 50.094688 
" style="fill: none; stroke: #ff7f0e; stroke-width: 1.5; stroke-linecap: square"/>
    </g>
    <g id="text_19">
     <!-- BH2 -->
     <g transform="translate(291.876562 53.594688) scale(0.1 -0.1)">
      <use xlink:href="#DejaVuSans-42"/>
      <use xlink:href="#DejaVuSans-48" transform="translate(68.603516 0)"/>
      <use xlink:href="#DejaVuSans-32" transform="translate(143.798828 0)"/>
     </g>
    </g>
   </g>
  </g>
 </g>
 <defs>
  <clipPath id="p70154bddc6">
   <rect x="42.620313" y="22.318125" width="279" height="277.2"/>
  </clipPath>
 </defs>
</svg>
